<svg id="Layer_1" data-name="Layer 1" xmlns="http://www.w3.org/2000/svg" viewBox="0 0 207.15 380.26"><defs><style>.cls-1{fill:#fff;}</style></defs><path class="cls-1" d="M21.84,325.46a7.39,7.39,0,0,1-.75.13,6.57,6.57,0,0,1-1,.05,6.07,6.07,0,0,1-1-.05,6.27,6.27,0,0,1-.71-.13c0,.93.07,1.72.09,2.38s0,1.25.06,1.76,0,1,.05,1.4,0,.85,0,1.3v3.36c0,1.5,0,2.74,0,3.73s0,1.88-.06,2.66-.06,1.5-.09,2.17-.08,1.42-.14,2.25l.72-.12a5.52,5.52,0,0,1,.88-.06,7.54,7.54,0,0,1,1,.06l.89.12c0-.57,0-1.16-.07-1.78s-.06-1.32-.08-2.11,0-1.69,0-2.7,0-2.21,0-3.58c0-1.83,0-3.63,0-5.42s.09-3.6.19-5.42"/><rect class="cls-1" x="0.06" y="374.19" width="206.4" height="6.07"/><path class="cls-1" d="M14.35,344.43c-.34.07-.75.12-1.22.17s-1,.09-1.44.12l-1.47.06-1.31,0H7.76q-.57,0-1.65-.06v-4.18c0-1.2,0-2.3,0-3.29s0-1.92,0-2.8,0-1.75,0-2.65,0-1.86.08-2.89.06-2.18.1-3.47l-.86.12a7.62,7.62,0,0,1-1,.06,5.55,5.55,0,0,1-.92-.06l-.71-.12c0,.32,0,.83.06,1.52s.05,1.48.08,2.38,0,1.87.07,2.91,0,2.08,0,3.12,0,1.94,0,2.85l0,2.72c0,.9,0,1.8-.08,2.7s-.09,1.84-.15,2.81l1.1-.06,1-.06,1.22-.05H10l1.62.05,1.38.06,1.37.06a2.15,2.15,0,0,1-.09-.43,5,5,0,0,1,0-.6,4.56,4.56,0,0,1,0-.57,3.43,3.43,0,0,1,.09-.44"/><path class="cls-1" d="M38.68,325.49q-.42.06-.87.09c-.3,0-.67,0-1.13.05l-1.68,0c-.67,0-1.51,0-2.51,0H31c-.43,0-.82,0-1.18,0s-.71,0-1.05-.06l-1.14-.1c0,.73.07,1.56.1,2.49s.06,1.88.08,2.85,0,1.93,0,2.86,0,1.76,0,2.48c0,2,0,3.81-.09,5.47s-.14,3.27-.24,4.83l.7-.12a5.87,5.87,0,0,1,.95-.06,7,7,0,0,1,1,.06l.75.12c0-.45-.07-.88-.1-1.29s-.06-.86-.08-1.32,0-1,0-1.54,0-1.21,0-1.95l0-4.2,1.15,0,1.23,0c.64,0,1.4,0,2.27.06a26.38,26.38,0,0,1,2.63.28c0-.16-.07-.31-.09-.44a3.7,3.7,0,0,1,0-.53,4.73,4.73,0,0,1,0-.58,4.63,4.63,0,0,1,.09-.49c-.48.06-1,.12-1.61.16s-1.2.06-1.83.07l-1.93,0H30.77c0-.41,0-.75,0-1s0-.55,0-.82v-4.1c0-.25,0-.49,0-.73s0-.5,0-.8l1,0h.93c1.24,0,2.39,0,3.43.13s1.88.19,2.52.29a4.3,4.3,0,0,1-.09-.47,4.62,4.62,0,0,1,0-.56,5.15,5.15,0,0,1,0-.58,4,4,0,0,1,.09-.48"/><path class="cls-1" d="M62.48,346.83a8.86,8.86,0,0,0,3.44-.6,6.83,6.83,0,0,0,2.35-1.6,6.22,6.22,0,0,0,1.34-2.18,7.21,7.21,0,0,0,.42-2.39,6.25,6.25,0,0,0-.08-.92,5.42,5.42,0,0,0-.25-1,4.63,4.63,0,0,0-.51-1,4.91,4.91,0,0,0-.85-.93,6.61,6.61,0,0,0-.75-.56,8.38,8.38,0,0,0-.87-.47c-.34-.16-.77-.34-1.28-.54l-2-.79c-.38-.14-.78-.32-1.19-.52a5.67,5.67,0,0,1-1.14-.73,3.28,3.28,0,0,1-.86-1.05,3.21,3.21,0,0,1-.33-1.53,4.75,4.75,0,0,1,.14-1,3.11,3.11,0,0,1,.55-1.15,3.49,3.49,0,0,1,1.18-1,4.3,4.3,0,0,1,2-.39,5.13,5.13,0,0,1,1.76.27,3.87,3.87,0,0,1,1.22.7,3.74,3.74,0,0,1,.77.93,5.68,5.68,0,0,1,.43.92h.42a4.63,4.63,0,0,1,.14-.8,7.74,7.74,0,0,1,.24-.77q.14-.37.27-.66l.23-.47a6.88,6.88,0,0,0-.77-.42,7.32,7.32,0,0,0-1.17-.46,13.58,13.58,0,0,0-1.49-.36,8.5,8.5,0,0,0-1.69-.16,8.92,8.92,0,0,0-2.54.37,6,6,0,0,0-2.13,1.11A5.22,5.22,0,0,0,58,328.54a5.64,5.64,0,0,0-.55,2.56,6.36,6.36,0,0,0,.37,2.1A3.68,3.68,0,0,0,59,334.87a4.85,4.85,0,0,0,.59.47,5.48,5.48,0,0,0,.76.42c.32.16.74.35,1.27.58s1.22.53,2.1.9c.5.2,1,.42,1.43.65a4.9,4.9,0,0,1,1.19.84,3.66,3.66,0,0,1,.81,1.13,3.76,3.76,0,0,1,.3,1.57,4.72,4.72,0,0,1-.25,1.46,3.77,3.77,0,0,1-.8,1.29,4.27,4.27,0,0,1-1.39.92,5.08,5.08,0,0,1-2,.37,5.21,5.21,0,0,1-3.08-.9,5.78,5.78,0,0,1-1.94-2.26h-.39c0,.2-.07.53-.13,1a13.18,13.18,0,0,1-.42,1.85,7.89,7.89,0,0,0,2.58,1.28,10.74,10.74,0,0,0,2.9.39"/><path class="cls-1" d="M53.76,344.46c-1.79.19-3.31.29-4.58.32s-2.37.05-3.34.05c0-.2,0-.49,0-.85s0-.77,0-1.22l0-1.35c0-.45,0-.88,0-1.29,0-.65,0-1.31,0-2s0-1.34,0-2l1.21,0,1.23,0c.64,0,1.38,0,2.23.08s1.65.13,2.43.23c0-.16,0-.32-.07-.47a2.5,2.5,0,0,1-.05-.47,4.56,4.56,0,0,1,0-.57c0-.15,0-.3.09-.47a30,30,0,0,1-3.53.23c-1.18,0-2.36,0-3.57,0,0-.41,0-.75,0-1s0-.55,0-.82v-4.08c0-.25,0-.48,0-.72s0-.5,0-.8c.65,0,1.16-.06,1.54-.06h1.38c.66,0,1.23,0,1.7,0s.89,0,1.25.09l1,.12c.29,0,.57.09.85.15,0-.16-.07-.31-.09-.44a3.7,3.7,0,0,1,0-.53,4.86,4.86,0,0,1,0-.56,4,4,0,0,1,.09-.5q-1.14.12-2.28.15c-.76,0-1.53,0-2.29,0-1.06,0-2.11,0-3.14,0s-2.08-.06-3.14-.16c0,.75.07,1.55.1,2.41s.06,1.74.08,2.63,0,1.77,0,2.64,0,1.68,0,2.43q0,2.49,0,4.17c0,1.13,0,2.09-.08,2.89s-.06,1.49-.1,2.08-.08,1.16-.12,1.73l3.48-.12c1.17,0,2.33-.06,3.49-.06h2.1a16.65,16.65,0,0,1,2.09.17,2,2,0,0,1-.09-.44,2.53,2.53,0,0,1,0-.53,3.11,3.11,0,0,1,0-.57,2.15,2.15,0,0,1,.09-.47"/><path class="cls-1" d="M121.31,344.43c-.34.07-.75.12-1.22.17s-1,.09-1.44.12l-1.47.06-1.31,0h-1.14c-.39,0-.94,0-1.66-.06v-4.18c0-1.2,0-2.3,0-3.29s0-1.92,0-2.8,0-1.75,0-2.65,0-1.86.08-2.89.06-2.18.1-3.47l-.86.12a7.62,7.62,0,0,1-1,.06,5.55,5.55,0,0,1-.92-.06l-.71-.12c0,.32,0,.83.06,1.52s.05,1.48.08,2.38.05,1.87.07,2.91,0,2.08,0,3.12,0,1.94,0,2.85l0,2.72c0,.9,0,1.8-.08,2.7s-.09,1.84-.15,2.81l1.1-.06,1-.06,1.22-.05h3.79l1.62.05,1.38.06,1.37.06a2.15,2.15,0,0,1-.09-.43,5,5,0,0,1,0-.6,4.56,4.56,0,0,1,0-.57,3.43,3.43,0,0,1,.09-.44"/><path class="cls-1" d="M135.66,344.46c-1.78.19-3.31.29-4.57.32s-2.38.05-3.34.05c0-.2,0-.49,0-.85s0-.77,0-1.22,0-.89,0-1.35,0-.88,0-1.29c0-.65,0-1.31,0-2s0-1.34,0-2l1.2,0,1.24,0c.64,0,1.38,0,2.22.08s1.66.13,2.44.23c0-.16,0-.32-.08-.47a2.49,2.49,0,0,1,0-.47,4.56,4.56,0,0,1,0-.57c0-.15.05-.3.09-.47a30.19,30.19,0,0,1-3.54.23c-1.17,0-2.36,0-3.56,0,0-.41,0-.75,0-1s0-.55,0-.82v-4.08c0-.25,0-.48,0-.72s0-.5,0-.8q1-.06,1.53-.06h1.39c.66,0,1.22,0,1.7,0s.88,0,1.24.09l1,.12c.29,0,.58.09.86.15,0-.16-.07-.31-.09-.44a3.7,3.7,0,0,1,0-.53,4.86,4.86,0,0,1,0-.56,4,4,0,0,1,.09-.5c-.76.08-1.52.13-2.29.15s-1.52,0-2.28,0c-1.07,0-2.11,0-3.15,0s-2.08-.06-3.14-.16c0,.75.08,1.55.11,2.41s0,1.74.07,2.63,0,1.77,0,2.64,0,1.68,0,2.43q0,2.49,0,4.17c0,1.13,0,2.09-.07,2.89s-.07,1.49-.11,2.08-.08,1.16-.12,1.73l3.49-.12c1.16,0,2.33-.06,3.49-.06h2.09a16.5,16.5,0,0,1,2.09.17c0-.16-.07-.31-.09-.44a3.7,3.7,0,0,1,0-.53,4.56,4.56,0,0,1,0-.57c0-.15.05-.3.09-.47"/><path class="cls-1" d="M91.11,325.64h-.78a5.34,5.34,0,0,1-1.14-.17c.32.5.6,1,.85,1.39l.79,1.33.9,1.5c.33.54.72,1.2,1.17,2s1,1.65,1.58,2.68,1.33,2.26,2.17,3.68c0,1.15,0,2.13,0,2.93s0,1.5,0,2.11,0,1.17-.06,1.7-.07,1.1-.13,1.73a2.71,2.71,0,0,1,.72-.15q.39,0,1.08,0H99a3.14,3.14,0,0,1,.83.17c0-.61-.08-1.26-.11-2s0-1.38-.06-2,0-1.26,0-1.81,0-1,0-1.25v-.91a6,6,0,0,1,0-.76q.11-.27.24-.57a5.13,5.13,0,0,1,.33-.67c.22-.41.51-.92.87-1.55s.76-1.3,1.2-2l1.36-2.24c.46-.75.9-1.48,1.33-2.17s.83-1.3,1.18-1.83.62-.95.82-1.23c-.24.06-.45.1-.64.13a3.63,3.63,0,0,1-.71.05l-.72,0a2.65,2.65,0,0,1-.69-.15c-.6,1.47-1.26,2.92-2,4.33s-1.44,2.79-2.22,4.17l-.26.45c-.11.21-.23.41-.36.61l-.36.55c-.11.16-.19.24-.23.24s-.14-.06-.24-.2-.22-.31-.36-.53-.29-.47-.45-.74-.32-.55-.48-.84c-.64-1.13-1.32-2.36-2-3.69a40.13,40.13,0,0,1-2-4.35,6.59,6.59,0,0,1-.78.12,12.44,12.44,0,0,1-1.33.06"/><path class="cls-1" d="M206.66,115.31a146.45,146.45,0,0,0-2.22-17.92A114.46,114.46,0,0,0,199.38,79,55.82,55.82,0,0,0,190,62.54a45.51,45.51,0,0,0-15-11.83q-9-4.47-21.82-4.48-12.59,0-21.58,4.48a44.7,44.7,0,0,0-15,11.95A58.7,58.7,0,0,0,107,79.59a112.64,112.64,0,0,0-5.17,19.29,156.29,156.29,0,0,0-2.22,19.29q-.49,9.47-.5,16.68,0,6.14.38,13.8-2.89.19-5.82.33-8.62.38-17.26.37H29.1L77.18,99.82A113.53,113.53,0,0,0,86.55,89,90.94,90.94,0,0,0,94.94,75.8a85.68,85.68,0,0,0,6-14.94,56.7,56.7,0,0,0,2.34-16.3A45.63,45.63,0,0,0,100,27a40.3,40.3,0,0,0-9.62-14.07A45.49,45.49,0,0,0,74.72,3.48,60.64,60.64,0,0,0,53.51,0Q40.43,0,31.44,3.86a57.26,57.26,0,0,0-14.8,8.83,44.13,44.13,0,0,0-8.87,10q-3.09,5-4.32,7.47a61.54,61.54,0,0,1,5.92,6.47,32.26,32.26,0,0,1,5.43,10l3.94-.75q-.24-9.94,2.59-16.68A30.93,30.93,0,0,1,28.6,18.29a26.9,26.9,0,0,1,9.62-5.85,31.23,31.23,0,0,1,9.86-1.74q10.11,0,16,4.48A28.9,28.9,0,0,1,73,25.89a42.76,42.76,0,0,1,3.82,12.82,84.51,84.51,0,0,1,.86,10.58A71.07,71.07,0,0,1,75,69.45a96.28,96.28,0,0,1-6.53,16.68,83.89,83.89,0,0,1-8.26,13.19q-4.44,5.73-8.14,10-12.09,14.43-25,27.87T0,163v7q9.12-.24,19.36-.37T40,169.27q10.35-.26,20.46-.38t19.24-.12q8.88,0,17.26.37c1.77.08,3.44.16,5,.25a113.78,113.78,0,0,0,5,18.11,50.94,50.94,0,0,0,9.37,16.05,46.22,46.22,0,0,0,15,11.33q9,4.35,21.83,4.36,13.31,0,22.56-5.48A49.65,49.65,0,0,0,191,199.82a65.18,65.18,0,0,0,9.24-18.92,151.88,151.88,0,0,0,4.81-20.41,140.92,140.92,0,0,0,1.85-18.17c.16-5.48.25-9.62.25-12.45q0-6-.49-14.56m-31.44,74.8q-7.28,19.66-22.57,19.67-10.85,0-16.64-7.85a52.2,52.2,0,0,1-8.51-19.54,133.26,133.26,0,0,1-3.2-25.51q-.51-13.81-.5-25.76,0-12.2.74-25.52a127.37,127.37,0,0,1,3.58-24.39,46.86,46.86,0,0,1,8.75-18.3q5.92-7.21,16.28-7.22,9.36,0,15.16,5.36t8.88,15.06A105.63,105.63,0,0,1,181.38,99q1.11,13.18,1.11,28.87,0,42.57-7.27,62.23"/><path class="cls-1" d="M72.13,327.58a20.35,20.35,0,0,1,2.65-.28c1.1-.06,2.45-.09,4-.11,0,1,0,2.18,0,3.44s0,2.59,0,4q0,3.11-.07,6.22c0,2.08-.14,4-.26,5.64a5.1,5.1,0,0,1,.63-.12,6.61,6.61,0,0,1,.93-.06l.67,0q.48,0,1.26.15c-.08-1.15-.14-2.3-.17-3.46s0-2.28-.06-3.39,0-2.19,0-3.23,0-2,0-2.93,0-2.07,0-3.12,0-2.1,0-3.15c1.8,0,3.21.07,4.21.15s1.73.17,2.2.24a2.7,2.7,0,0,1-.09-.48,3.45,3.45,0,0,1,0-.58,3.57,3.57,0,0,1,0-.59,2.18,2.18,0,0,1,.09-.47c-.49,0-1,.07-1.66.1s-1.28.06-2,.07H76c-.74,0-1.45,0-2.13-.07s-1.26-.06-1.72-.1a4.3,4.3,0,0,1,.09.47,4.68,4.68,0,0,1,0,.59,5,5,0,0,1,0,.58,4,4,0,0,1-.09.48"/><path class="cls-1" d="M21.1,215.14c0,.8-.06,1.5-.1,2.08s-.08,1.17-.12,1.74l3.49-.13c1.16,0,2.32-.06,3.49-.06l2.09,0A14.84,14.84,0,0,1,32,219c0-.17-.07-.31-.09-.45a3.6,3.6,0,0,1,0-.53,4.39,4.39,0,0,1,0-.56A4.3,4.3,0,0,1,32,217c-1.79.18-3.31.29-4.57.32s-2.38,0-3.34,0c0-.21,0-.49,0-.86s0-.76,0-1.21l0-1.35c0-.46,0-.89,0-1.29,0-.65,0-1.31,0-2s0-1.34.05-2l1.2,0,1.23,0c.64,0,1.39,0,2.23.08s1.65.12,2.44.23c0-.17-.05-.33-.08-.48a2.34,2.34,0,0,1-.05-.47,3,3,0,0,1,0-.56,4.3,4.3,0,0,1,.09-.47,32.69,32.69,0,0,1-3.54.23c-1.17,0-2.36,0-3.56,0,0-.4,0-.74,0-1s0-.55,0-.82v-4.09c0-.24,0-.48,0-.71s0-.5.05-.81q1-.06,1.53-.06H27c.67,0,1.23,0,1.7,0s.89.06,1.25.1l1,.12c.29,0,.58.09.86.15,0-.16-.07-.31-.09-.44a3.7,3.7,0,0,1,0-.53,5,5,0,0,1,0-.57,4.37,4.37,0,0,1,.09-.5c-.76.08-1.53.14-2.29.16s-1.52,0-2.28,0l-3.15,0c-1,0-2.08-.06-3.14-.17,0,.75.07,1.56.1,2.42s.06,1.73.08,2.62,0,1.78,0,2.65,0,1.68,0,2.42c0,1.66,0,3.06,0,4.18s-.05,2.09-.08,2.88M56.85,219l.66-.13a5.65,5.65,0,0,1,.94-.06c.28,0,.57,0,.88,0a5.15,5.15,0,0,1,.86.14q-.18-3.68-.19-6.11c0-1.62,0-3,0-4.07h.78c.58.69,1.16,1.4,1.73,2.11s1.16,1.49,1.76,2.31,1.22,1.7,1.85,2.64,1.31,2,2,3.12c.42-.05.81-.08,1.16-.13a9,9,0,0,1,1-.06,6,6,0,0,1,.9.06c.26,0,.55.08.87.13v-.37l-.61-.8-1.31-1.69-1.69-2.16c-.6-.76-1.17-1.51-1.73-2.24l-1.48-2c-.45-.6-.76-1-.94-1.32.46-.08,1-.21,1.7-.38a6.76,6.76,0,0,0,1.94-.84,5.2,5.2,0,0,0,1.6-1.57,4.75,4.75,0,0,0,.66-2.65,6,6,0,0,0-.33-2,3.65,3.65,0,0,0-1.21-1.62,5.81,5.81,0,0,0-.79-.55,4.29,4.29,0,0,0-1.07-.39,11.88,11.88,0,0,0-1.55-.24c-.61-.06-1.37-.09-2.27-.09H61.26l-1,0H59.5l-1.11,0c-.42,0-.93-.05-1.51-.11q.06,2.58.12,4.92t.06,4.47c0,2.22,0,4.27,0,6.13s-.09,3.69-.17,5.5M60,201.5q0-1,.06-2.07c.2,0,.46-.07.77-.1s.69-.05,1.13-.05a13.49,13.49,0,0,1,1.73.12,4.56,4.56,0,0,1,1.68.55,3.47,3.47,0,0,1,1.26,1.21,4.81,4.81,0,0,1-.18,4.6,4.12,4.12,0,0,1-1.58,1.32,5.63,5.63,0,0,1-1.82.53c-.61.07-1.08.12-1.42.14l-.86,0a5.35,5.35,0,0,1-.74-.06V207c0-.32,0-.68,0-1.08s0-.8,0-1.21Zm-8,13.31-1.8-4.14q-1-2.31-2-4.67t-1.9-4.52c-.59-1.45-1.08-2.71-1.46-3.78a1.58,1.58,0,0,1-.31.08H44.1a2.37,2.37,0,0,1-.41,0l-.34-.06c-.36.91-.78,1.93-1.25,3.07s-1,2.32-1.5,3.56-1.09,2.53-1.67,3.85l-1.73,3.87-1.66,3.67c-.53,1.19-1,2.26-1.46,3.24l.6-.13a3.84,3.84,0,0,1,.73-.06,3.27,3.27,0,0,1,.69.06l.54.13a40.8,40.8,0,0,1,1.55-4.91c.53-1.32,1-2.34,1.25-3.05h7.61c.38.85.85,1.93,1.41,3.23A39,39,0,0,1,50.08,219l.88-.13a8,8,0,0,1,1-.06,6.85,6.85,0,0,1,1,.06l.8.13s-.18-.42-.53-1.17-.79-1.75-1.33-3M40,209.45l3.16-7.53,3.25,7.53Zm43.64,7.21a4.09,4.09,0,0,1-1.38.93,5.1,5.1,0,0,1-2,.36,5.28,5.28,0,0,1-3.08-.89,5.82,5.82,0,0,1-1.94-2.27h-.39c0,.21-.06.54-.12,1a13.5,13.5,0,0,1-.42,1.85,7.84,7.84,0,0,0,2.57,1.28,10.74,10.74,0,0,0,2.9.39,8.73,8.73,0,0,0,3.45-.61,6.64,6.64,0,0,0,2.34-1.59,6.26,6.26,0,0,0,1.34-2.19,7.15,7.15,0,0,0,.42-2.38,6.29,6.29,0,0,0-.07-.93,5.88,5.88,0,0,0-.26-1,4.57,4.57,0,0,0-.51-1,4.07,4.07,0,0,0-.84-.93,6.61,6.61,0,0,0-.75-.56,8.63,8.63,0,0,0-.88-.47c-.34-.16-.76-.35-1.27-.55l-2-.79a11.82,11.82,0,0,1-1.19-.51,6.22,6.22,0,0,1-1.15-.73,3.36,3.36,0,0,1-.85-1.05,3.21,3.21,0,0,1-.33-1.53,4.63,4.63,0,0,1,.13-1,3.07,3.07,0,0,1,.56-1.15,3.32,3.32,0,0,1,1.17-1,4.32,4.32,0,0,1,2-.39,5.17,5.17,0,0,1,1.76.27,3.64,3.64,0,0,1,1.21.7,3.46,3.46,0,0,1,.77.92,6.32,6.32,0,0,1,.44.93h.42a4.86,4.86,0,0,1,.13-.81,7.74,7.74,0,0,1,.24-.77c.09-.24.18-.46.27-.65l.23-.47a6.68,6.68,0,0,0-.77-.43,8.46,8.46,0,0,0-1.17-.45,13,13,0,0,0-1.49-.37,9.21,9.21,0,0,0-1.68-.15,8.53,8.53,0,0,0-2.54.37,6.12,6.12,0,0,0-2.14,1.1A5.53,5.53,0,0,0,75.32,201a5.82,5.82,0,0,0-.54,2.57,6.35,6.35,0,0,0,.36,2.1,3.68,3.68,0,0,0,1.14,1.67c.2.18.4.33.59.47a5.68,5.68,0,0,0,.77.42l1.26.58c.52.23,1.22.53,2.11.89.5.21,1,.42,1.42.66a5,5,0,0,1,1.19.83,3.82,3.82,0,0,1,.81,1.14,3.59,3.59,0,0,1,.31,1.56,4.37,4.37,0,0,1-.26,1.46,3.46,3.46,0,0,1-.8,1.29M17,198.13q-.36,0-.72,0a2.67,2.67,0,0,1-.69-.16q-.91,2.22-2,4.33t-2.23,4.17l-.25.46c-.11.2-.23.41-.36.61l-.36.54c-.11.17-.19.25-.23.25s-.14-.07-.24-.2-.22-.31-.36-.53-.29-.47-.45-.75L8.67,206c-.64-1.13-1.32-2.36-2-3.69a38.49,38.49,0,0,1-2-4.36c-.16,0-.42.08-.79.13a12.23,12.23,0,0,1-1.32.06l-.78,0a4.77,4.77,0,0,1-1.14-.17c.32.51.6,1,.85,1.4l.78,1.32.91,1.5,1.17,2,1.58,2.69c.6,1,1.32,2.26,2.16,3.67,0,1.16,0,2.13,0,2.93s0,1.51,0,2.11,0,1.18-.06,1.7-.08,1.11-.14,1.74a2.87,2.87,0,0,1,.73-.16q.39,0,1.08,0l.68,0a2.67,2.67,0,0,1,.82.17c0-.61-.07-1.27-.1-2s-.05-1.38-.06-2,0-1.26,0-1.8,0-1,0-1.25V211c0-.28,0-.54,0-.76s.16-.37.24-.58a5.06,5.06,0,0,1,.33-.66c.23-.41.52-.93.88-1.55s.76-1.31,1.2-2L15,203.18c.46-.76.91-1.48,1.34-2.17s.82-1.3,1.18-1.84.62-.94.82-1.23c-.24.06-.45.11-.64.14a4.73,4.73,0,0,1-.71,0"/><path class="cls-1" d="M54.41,295.9c.57.72,1.16,1.49,1.76,2.31s1.22,1.7,1.85,2.64,1.31,2,2,3.11l1.16-.12a8.78,8.78,0,0,1,1-.06,6,6,0,0,1,.91.06L64,304v-.36l-.62-.8c-.35-.46-.78-1-1.31-1.69L60.38,299c-.6-.78-1.18-1.52-1.73-2.25s-1-1.39-1.49-2-.75-1-.93-1.32c.46-.08,1-.21,1.7-.38a6.76,6.76,0,0,0,1.94-.84,5.09,5.09,0,0,0,1.59-1.58,4.69,4.69,0,0,0,.66-2.64,6,6,0,0,0-.33-2,3.7,3.7,0,0,0-1.2-1.62,5.14,5.14,0,0,0-.8-.55,4.2,4.2,0,0,0-1.06-.39,14,14,0,0,0-1.55-.25c-.61-.06-1.37-.09-2.27-.09h-.68l-1,0H50.3c-.42,0-.92-.05-1.5-.11q.06,2.58.12,4.92t.06,4.47c0,2.22,0,4.27,0,6.13s-.09,3.69-.17,5.49l.66-.12a5.52,5.52,0,0,1,.93-.06c.28,0,.58,0,.89.05a6.79,6.79,0,0,1,.86.13q-.18-3.68-.2-6.1c0-1.62,0-3,0-4.07h.78c.58.69,1.16,1.39,1.73,2.11m-2.51-3.17V292c0-.32,0-.68,0-1.08s0-.8,0-1.21v-3.2q0-1,.06-2.07c.2,0,.45-.07.76-.11s.69,0,1.13,0a13.37,13.37,0,0,1,1.73.12,4.61,4.61,0,0,1,1.69.55,3.47,3.47,0,0,1,1.26,1.21,4.81,4.81,0,0,1-.18,4.6,4.19,4.19,0,0,1-1.58,1.32,5.63,5.63,0,0,1-1.82.53c-.61.07-1.09.12-1.43.14l-.86,0a5.22,5.22,0,0,1-.73-.06m32,11.07.48,0a4,4,0,0,1,.81.06,1.78,1.78,0,0,1,.4.12c.56-1.55,1.15-3.13,1.77-4.72s1.24-3.14,1.85-4.64,1.2-2.93,1.78-4.27,1.08-2.52,1.54-3.55.86-1.89,1.18-2.57.53-1.09.63-1.26a2.48,2.48,0,0,1-.75.15,6.82,6.82,0,0,1-.72,0,4.47,4.47,0,0,1-.7,0,3.58,3.58,0,0,1-.54-.14l-.18.67-.21.76c-.08.28-.18.61-.28,1s-.25.8-.41,1.31c-.46,1.41-.9,2.69-1.31,3.82s-.82,2.23-1.22,3.3-.82,2.13-1.28,3.2l-1.48,3.55c-.39-.83-.79-1.75-1.21-2.76s-.84-2.06-1.26-3.14-.84-2.18-1.25-3.3-.8-2.18-1.16-3.21-.68-2-1-2.87-.52-1.65-.7-2.3a4.29,4.29,0,0,1-1.1.17h-1c-.28,0-.59,0-.94,0a4.14,4.14,0,0,1-.83-.14c.38.73.83,1.71,1.37,2.93s1.08,2.55,1.67,4,1.16,2.9,1.74,4.4,1.12,2.92,1.61,4.24.91,2.46,1.26,3.44.59,1.66.71,2a2,2,0,0,1,.69-.16M101.26,283a7.51,7.51,0,0,1-.75.14,8.94,8.94,0,0,1-1,0,8,8,0,0,1-1,0,6.19,6.19,0,0,1-.7-.14c0,.93.07,1.73.09,2.39s0,1.24.06,1.76,0,1,0,1.39,0,.85,0,1.31v3.35c0,1.5,0,2.75,0,3.74s0,1.88-.06,2.66-.06,1.5-.09,2.17-.07,1.41-.13,2.24l.72-.12a5.39,5.39,0,0,1,.87-.06,7.7,7.7,0,0,1,1,.06l.89.12c0-.56,0-1.15-.08-1.77s-.05-1.32-.07-2.11,0-1.69,0-2.7,0-2.21,0-3.59c0-1.82,0-3.63,0-5.42s.1-3.6.2-5.42m-30.08,0a7.51,7.51,0,0,1-.75.14,8.83,8.83,0,0,1-1,0,7.8,7.8,0,0,1-.94,0,6.35,6.35,0,0,1-.71-.14c0,.93.07,1.73.09,2.39s0,1.24.06,1.76,0,1,0,1.39,0,.85,0,1.31v3.35c0,1.5,0,2.75,0,3.74s0,1.88-.07,2.66-.06,1.5-.09,2.17-.07,1.41-.13,2.24l.72-.12a5.39,5.39,0,0,1,.87-.06,7.7,7.7,0,0,1,1,.06l.89.12c0-.56-.05-1.15-.08-1.77s0-1.32-.07-2.11,0-1.69,0-2.7,0-2.21,0-3.59c0-1.82,0-3.63,0-5.42s.1-3.6.2-5.42m65.48,6.38a12.17,12.17,0,0,0-.69,4.1,11.81,11.81,0,0,0,.81,4.46,9.9,9.9,0,0,0,2.3,3.45,10.35,10.35,0,0,0,3.57,2.23,12.64,12.64,0,0,0,4.57.79,20.94,20.94,0,0,0,2.33-.12,18.82,18.82,0,0,0,2.06-.35c.66-.15,1.31-.34,1.95-.55l2-.68c0-.34-.07-.71-.08-1.09s0-.76,0-1.13q0-1.72.09-3.15c.06-1,.13-1.89.21-2.8l-.68.12a5.5,5.5,0,0,1-.91.06,9.17,9.17,0,0,1-1,0,7.09,7.09,0,0,1-.78-.14q.09.74.12,1.29c0,.38,0,.81.05,1.31s0,1.1,0,1.83,0,1.71,0,2.92a6.21,6.21,0,0,1-1.4.67,9.25,9.25,0,0,1-2.54.47H148a8.58,8.58,0,0,1-3.2-.61,7.94,7.94,0,0,1-2.76-1.8,8.75,8.75,0,0,1-1.92-3,11.26,11.26,0,0,1-.72-4.2,11.44,11.44,0,0,1,.67-4.12,8.53,8.53,0,0,1,1.82-2.91,7.44,7.44,0,0,1,2.63-1.75,9.38,9.38,0,0,1,6-.18,7.1,7.1,0,0,1,1.93,1,5.8,5.8,0,0,1,1.23,1.18c.31.42.56.77.74,1.05h.33c.06-.28.16-.7.3-1.23a10.6,10.6,0,0,1,.72-1.87,15.85,15.85,0,0,0-3.79-1.3,19.63,19.63,0,0,0-4.33-.49,14,14,0,0,0-5.18.87,10.19,10.19,0,0,0-3.63,2.33,9.2,9.2,0,0,0-2.14,3.42m-92.27,2.28a5.31,5.31,0,0,0,.71-1.43,5.94,5.94,0,0,0,.27-1.85,5.25,5.25,0,0,0-.71-2.74,4.74,4.74,0,0,0-2.09-1.85,7.07,7.07,0,0,0-2.51-.61c-1-.06-2-.09-3.14-.09H34c-.78,0-1.46,0-2-.08,0,.55.07,1.07.1,1.57s.06,1,.08,1.65,0,1.31,0,2.1,0,1.75,0,2.88c0,2.15,0,4.28-.05,6.41s-.09,4.26-.19,6.4l.66-.12a5.52,5.52,0,0,1,.93-.06,6.37,6.37,0,0,1,1,.06l.73.12c0-.72-.07-1.43-.1-2.11s-.06-1.37-.08-2.09,0-1.49,0-2.32v-2.83l.73.05h.72c.46,0,1,0,1.49-.06s1.06-.1,1.59-.19a13,13,0,0,0,1.55-.38,6,6,0,0,0,1.35-.64,10.3,10.3,0,0,0,1-.75,5.93,5.93,0,0,0,.94-1m-3-.28a4.08,4.08,0,0,1-1.72,1.43,6.69,6.69,0,0,1-2.29.53c-.83,0-1.61.07-2.36,0,0-1.6,0-3.16,0-4.66s0-2.92,0-4.24c.28,0,.59-.07.91-.09l.84,0a9.27,9.27,0,0,1,2.31.3,4.54,4.54,0,0,1,2,1,3,3,0,0,1,.8,1.33,5.83,5.83,0,0,1,.22,1.65,4.67,4.67,0,0,1-.67,2.7m66.11,7.12c0,.9,0,1.81-.08,2.71s-.09,1.83-.15,2.8l1.1-.06,1-.06,1.22,0,1.67,0,2.12,0,1.62,0,1.38.06,1.37.06a2.2,2.2,0,0,1-.09-.42,5,5,0,0,1,0-.61,4.39,4.39,0,0,1,0-.56,3.12,3.12,0,0,1,.09-.44c-.34.06-.74.12-1.22.17s-.95.09-1.44.12l-1.47.06h-2.45c-.39,0-.94,0-1.66-.06v-4.17c0-1.21,0-2.3,0-3.3s0-1.92,0-2.79,0-1.76,0-2.66,0-1.86.08-2.88.06-2.18.1-3.48l-.86.12a6.27,6.27,0,0,1-1,.06,4.63,4.63,0,0,1-.92-.06l-.71-.12c0,.33,0,.83.06,1.52s0,1.48.08,2.38,0,1.88.07,2.92,0,2.08,0,3.11,0,1.94,0,2.86l0,2.71m53.12-13.05c0,.86,0,1.73.07,2.62s0,1.77.05,2.65,0,1.68,0,2.42c0,1.67,0,3.06,0,4.18s0,2.08-.07,2.88-.07,1.5-.11,2.08-.08,1.17-.12,1.73l3.49-.12c1.16,0,2.33-.06,3.49-.06l2.09,0a16.48,16.48,0,0,1,2.09.16,4.31,4.31,0,0,1-.09-.44,3.6,3.6,0,0,1,0-.53,4.39,4.39,0,0,1,0-.56,4.3,4.3,0,0,1,.09-.47c-1.78.18-3.31.29-4.57.32s-2.38,0-3.34,0c0-.2,0-.48,0-.85s0-.76,0-1.21,0-.89,0-1.35,0-.89,0-1.29c0-.65,0-1.31,0-2s0-1.34,0-2c.38,0,.78,0,1.2,0l1.24,0c.64,0,1.38,0,2.22.08s1.66.12,2.44.22c0-.16-.05-.31-.08-.47a2.42,2.42,0,0,1,0-.47,4.39,4.39,0,0,1,0-.56,4.3,4.3,0,0,1,.09-.47,32.36,32.36,0,0,1-3.54.23c-1.17,0-2.36,0-3.56,0,0-.4,0-.74,0-1s0-.54,0-.81V286.2c0-.24,0-.48,0-.71s0-.5,0-.81q1-.06,1.53-.06h1.39c.66,0,1.23,0,1.7,0s.89.05,1.25.09l1,.13c.29,0,.58.09.86.15,0-.17-.07-.31-.09-.44a3.7,3.7,0,0,1,0-.53,5,5,0,0,1,0-.57,4.37,4.37,0,0,1,.09-.5c-.76.08-1.52.14-2.28.15s-1.53,0-2.29,0l-3.14,0c-1,0-2.08-.07-3.15-.17,0,.75.08,1.56.11,2.42m14.9-2.51c0,.81.08,1.52.11,2.13s.05,1.22.07,1.85,0,1.33.05,2.09,0,1.72,0,2.86c0,1.74,0,3.21,0,4.4s0,2.24-.07,3.13-.07,1.69-.11,2.4-.09,1.44-.15,2.21l1.11-.06.85,0,.66,0h.6l1,0,1.53,0,1.44.05h.77a14.08,14.08,0,0,0,4.32-.65,10.26,10.26,0,0,0,3.64-2,9.71,9.71,0,0,0,2.52-3.45,11.9,11.9,0,0,0,1-5,13.83,13.83,0,0,0-.15-2,9.5,9.5,0,0,0-.52-2,9,9,0,0,0-1-1.91,7.73,7.73,0,0,0-1.63-1.72,8.4,8.4,0,0,0-2.15-1.3,10.31,10.31,0,0,0-2.4-.67,20.92,20.92,0,0,0-2.91-.25c-1.06,0-2.26,0-3.61,0-1.64,0-3.28,0-4.93-.09m5.87,1.49,1.82,0a13.85,13.85,0,0,1,1.82.18,10.05,10.05,0,0,1,1.77.47,6.1,6.1,0,0,1,1.66.93,7.28,7.28,0,0,1,1.53,1.62,8,8,0,0,1,.93,1.87,9.81,9.81,0,0,1,.45,1.95,14.74,14.74,0,0,1,.12,1.82,15.72,15.72,0,0,1-.13,2,11,11,0,0,1-.5,2.13,8.59,8.59,0,0,1-1,2,6.89,6.89,0,0,1-1.72,1.73,6.8,6.8,0,0,1-1.65.85,10.22,10.22,0,0,1-1.73.44,11.91,11.91,0,0,1-1.61.15l-1.23,0c-.72,0-1.31,0-1.76-.05s-.94-.07-1.46-.14c0-.74,0-1.39-.05-1.92s0-1.11,0-1.72,0-1.33,0-2.19v-3.37c0-1.39,0-2.84,0-4.34s.06-2.94.12-4.34l.62-.06.52,0a5.92,5.92,0,0,1,.62,0Zm-59.18,15.77c0,.8-.07,1.5-.11,2.08s-.08,1.17-.12,1.73l3.49-.12c1.16,0,2.33-.06,3.49-.06l2.09,0a16.48,16.48,0,0,1,2.09.16,4.31,4.31,0,0,1-.09-.44,3.6,3.6,0,0,1,0-.53,4.39,4.39,0,0,1,0-.56,4.3,4.3,0,0,1,.09-.47c-1.78.18-3.31.29-4.57.32s-2.38,0-3.34,0c0-.2,0-.48,0-.85s0-.76,0-1.21,0-.89,0-1.35,0-.89,0-1.29c0-.65,0-1.31,0-2s0-1.34,0-2c.38,0,.78,0,1.2,0l1.24,0c.64,0,1.38,0,2.22.08s1.66.12,2.44.22c0-.16-.05-.31-.08-.47a2.42,2.42,0,0,1,0-.47,4.39,4.39,0,0,1,0-.56,4.3,4.3,0,0,1,.09-.47,32.52,32.52,0,0,1-3.54.23c-1.17,0-2.36,0-3.56,0,0-.4,0-.74,0-1s0-.54,0-.81V286.2c0-.24,0-.48,0-.71s0-.5.05-.81q1-.06,1.53-.06h1.39c.66,0,1.22,0,1.7,0s.88.05,1.25.09l1,.13c.29,0,.58.09.86.15,0-.17-.07-.31-.09-.44a3.7,3.7,0,0,1,0-.53,5,5,0,0,1,0-.57,4.37,4.37,0,0,1,.09-.5c-.76.08-1.52.14-2.29.15s-1.52,0-2.28,0l-3.15,0c-1,0-2.08-.07-3.14-.17,0,.75.08,1.56.11,2.42s.05,1.73.07,2.62,0,1.77,0,2.65,0,1.68,0,2.42c0,1.67,0,3.06,0,4.18s0,2.08-.07,2.88"/><path class="cls-1" d="M7.35,296.09c-.31.7-.72,1.71-1.25,3A39.73,39.73,0,0,0,4.55,304L4,303.86a3.37,3.37,0,0,0-.7-.06,3.73,3.73,0,0,0-.72.06L2,304c.44-1,.93-2,1.46-3.21l1.65-3.64c.58-1.25,1.15-2.53,1.73-3.84s1.14-2.57,1.67-3.8,1-2.42,1.51-3.54.89-2.14,1.25-3l.34.06a2.37,2.37,0,0,0,.41,0h.35a1.58,1.58,0,0,0,.31-.08c.38,1.06.87,2.31,1.46,3.75s1.23,2.93,1.9,4.48,1.34,3.1,2,4.62,1.28,2.9,1.81,4.11,1,2.2,1.32,2.95.53,1.14.53,1.16l-.8-.12a6.7,6.7,0,0,0-1-.06,8.1,8.1,0,0,0-1.06.06L18,304a36.25,36.25,0,0,0-1.63-4.68q-.84-1.95-1.41-3.21Zm3.76-9L8,294.56h6.41Z"/><path class="cls-1" d="M13.6,240.18a13.91,13.91,0,0,0-4.92.8A10.19,10.19,0,0,0,5,243.23a9.61,9.61,0,0,0-2.27,3.44A12.16,12.16,0,0,0,2,251.1a11.61,11.61,0,0,0,.84,4.53A9.55,9.55,0,0,0,5.18,259a10.14,10.14,0,0,0,3.58,2.14,13.22,13.22,0,0,0,4.54.75,13.23,13.23,0,0,0,4.83-.85,10.7,10.7,0,0,0,3.65-2.36,10.41,10.41,0,0,0,2.32-3.55,11.93,11.93,0,0,0,.81-4.42,10.92,10.92,0,0,0-.89-4.52,9.61,9.61,0,0,0-2.42-3.33,10.16,10.16,0,0,0-3.59-2,13.85,13.85,0,0,0-4.41-.68m6.56,4.88a7.59,7.59,0,0,1,.64,1.45,12.53,12.53,0,0,1,.41,1.54,14.19,14.19,0,0,1,.21,1.52q.06.75.06,1.32a13.19,13.19,0,0,1-.6,4.15,8.74,8.74,0,0,1-1.69,3A6.9,6.9,0,0,1,16.62,260a8.1,8.1,0,0,1-3.26.64,7.82,7.82,0,0,1-3.2-.65,7.18,7.18,0,0,1-2.52-1.89,8.82,8.82,0,0,1-1.63-3,14.12,14.12,0,0,1,.1-8.4,8.55,8.55,0,0,1,1.82-3A7,7,0,0,1,10.5,242a8.58,8.58,0,0,1,2.95-.53,9.55,9.55,0,0,1,1.67.17,7.69,7.69,0,0,1,3.59,1.68,6.64,6.64,0,0,1,1.45,1.73m11.37-4.41-1.06-.07-1.14-.1c0,.73.08,1.56.11,2.49s0,1.88.07,2.85,0,1.93,0,2.86,0,1.76,0,2.49q0,3-.09,5.46t-.24,4.83l.71-.12a5.73,5.73,0,0,1,.94-.06,7,7,0,0,1,1,.06l.75.12c0-.45-.08-.88-.11-1.29s-.05-.86-.07-1.32,0-1-.05-1.53,0-1.22,0-2l0-4.19,1.14,0,1.24,0c.64,0,1.39,0,2.27.07a23.68,23.68,0,0,1,2.63.27c0-.16-.07-.31-.09-.44a3.7,3.7,0,0,1,0-.53,4.85,4.85,0,0,1,0-.58,4.63,4.63,0,0,1,.09-.49c-.48.07-1,.12-1.61.16s-1.2.06-1.84.07l-1.92,0H32.46c0-.41,0-.75,0-1s0-.55,0-.82v-4.1c0-.25,0-.49,0-.73s0-.5.05-.8l1,0h.93c1.25,0,2.39,0,3.43.14s1.89.18,2.53.28a3.89,3.89,0,0,1-.09-.47,4.39,4.39,0,0,1,0-.56,5,5,0,0,1,0-.58,4,4,0,0,1,.09-.48q-.42.06-.87.09l-1.13,0-1.69,0H31.53m20.18,6.16a13,13,0,0,0,0,8.47,9.78,9.78,0,0,0,2.17,3.45A9.91,9.91,0,0,0,57.39,261a12.43,12.43,0,0,0,4.67.82,15.8,15.8,0,0,0,3.88-.48,13.84,13.84,0,0,0,3.58-1.49c0-.57.08-1,.13-1.4s.12-.71.2-1.06l-.36-.15a8.11,8.11,0,0,1-1.87,1.69,9.35,9.35,0,0,1-1.92.93,7.81,7.81,0,0,1-1.73.41,10.41,10.41,0,0,1-1.31.1,8.07,8.07,0,0,1-3.07-.6A7.36,7.36,0,0,1,57,258a8.62,8.62,0,0,1-1.81-2.94,11.69,11.69,0,0,1-.67-4.15,12.68,12.68,0,0,1,.57-3.93,8.68,8.68,0,0,1,1.61-3,6.77,6.77,0,0,1,2.49-1.85,7.94,7.94,0,0,1,3.24-.64,8.76,8.76,0,0,1,2.19.27,8.35,8.35,0,0,1,1.91.75A6.48,6.48,0,0,1,68,243.64a4.28,4.28,0,0,1,.93,1.24h.31c0-.34.08-.64.12-.88s.08-.47.13-.68.11-.44.18-.67.17-.5.29-.81l-1.22-.5a13.23,13.23,0,0,0-1.64-.53A19.16,19.16,0,0,0,65,240.4a17.47,17.47,0,0,0-2.49-.16,14,14,0,0,0-5.15.85,10,10,0,0,0-3.58,2.3,9.26,9.26,0,0,0-2.1,3.42m79,10.51-1.8-4.15q-1-2.31-2-4.66T125,244c-.6-1.45-1.08-2.71-1.46-3.78a1.56,1.56,0,0,1-.32.07l-.34,0a1.58,1.58,0,0,1-.41,0l-.35,0c-.36.91-.77,1.93-1.24,3.06l-1.51,3.57c-.53,1.24-1.09,2.52-1.67,3.84s-1.16,2.61-1.73,3.87l-1.65,3.68-1.46,3.23.6-.12a3.73,3.73,0,0,1,.72-.06,3.27,3.27,0,0,1,.69.06l.55.12a38.87,38.87,0,0,1,1.55-4.9c.53-1.33.94-2.35,1.24-3.05h7.61c.38.84.86,1.92,1.42,3.23a38.77,38.77,0,0,1,1.62,4.72l.87-.12a8.32,8.32,0,0,1,1.06-.06,6.7,6.7,0,0,1,1,.06l.8.12s-.17-.41-.53-1.17-.79-1.75-1.32-3M118.82,252l3.15-7.53,3.25,7.53Zm71.52-8.13a7.28,7.28,0,0,1,2.63-1.74,9.38,9.38,0,0,1,6-.18,7.39,7.39,0,0,1,1.93,1,5.83,5.83,0,0,1,1.23,1.19c.31.41.56.76.73,1h.34q.09-.42.3-1.23a10.84,10.84,0,0,1,.72-1.86,15.42,15.42,0,0,0-3.79-1.31,20.23,20.23,0,0,0-4.33-.48,14.06,14.06,0,0,0-5.18.86,10.48,10.48,0,0,0-3.64,2.34,9.27,9.27,0,0,0-2.13,3.41,12.21,12.21,0,0,0-.69,4.1,11.86,11.86,0,0,0,.81,4.47,10,10,0,0,0,2.3,3.44,10.37,10.37,0,0,0,3.57,2.24,12.85,12.85,0,0,0,4.57.78,20.94,20.94,0,0,0,2.33-.12,16.69,16.69,0,0,0,2.06-.35q1-.22,1.95-.54c.64-.21,1.32-.44,2-.69,0-.34-.07-.71-.08-1.09s0-.76,0-1.12c0-1.16,0-2.21.09-3.16s.13-1.88.21-2.79l-.68.12a5.5,5.5,0,0,1-.91.06,8.82,8.82,0,0,1-1,0,7,7,0,0,1-.78-.13q.09.72.12,1.29c0,.37,0,.81,0,1.3s0,1.11,0,1.84,0,1.7,0,2.91a5.81,5.81,0,0,1-1.4.67,9.25,9.25,0,0,1-2.54.47l-.63,0a8.58,8.58,0,0,1-3.2-.61,8,8,0,0,1-2.76-1.81,8.8,8.8,0,0,1-1.92-3,12.8,12.8,0,0,1,0-8.32,8.48,8.48,0,0,1,1.82-2.92m-27.91,13.3q-.06,1.41-.12,2.58c0,.78-.08,1.36-.12,1.75l.51-.12a2.85,2.85,0,0,1,.66-.06,3.55,3.55,0,0,1,.71.06l.56.12q-.07-1.18-.12-2.16c0-.64-.08-1.27-.11-1.88s-.06-1.23-.08-1.87,0-1.33-.07-2.09-.05-1.61-.06-2.54,0-2-.05-3.24v-1.92l5.87,6.17.77.77c.25.25.5.5.76.74s.75.73,1.22,1.22l1.48,1.53c.51.54,1,1.09,1.53,1.66s1,1.09,1.43,1.59.83.94,1.16,1.34l.73.86.26,0,.22,0,.27,0,.31,0c0-.54-.07-1.16-.08-1.85s0-1.4,0-2.14,0-1.47,0-2.2v-2q0-3.3.06-6.57t.45-6.57l-.62.12a3.66,3.66,0,0,1-.68.06,3.1,3.1,0,0,1-.64-.06l-.53-.12c.1,1.09.18,2.12.23,3.08s.09,2,.12,3.08,0,2.32,0,3.69v6.09l-1.68-1.73-1.4-1.46L174,251.67l-1.52-1.61L170.57,248,168,245.21,166.78,244l-.89-1q-.39-.42-.69-.78l-.6-.71-1-1.18-.34,0-.29,0-.23,0-.25,0V244c0,.28,0,.78,0,1.49s0,1.46,0,2.26,0,1.56,0,2.29,0,1.25,0,1.55c0,.79,0,1.68-.05,2.67s-.06,2-.1,2.9m-88.54-15c0,.5.06,1,.08,1.46s0,1,0,1.5,0,1.15,0,1.87,0,1.57,0,2.55V253c0,.65,0,1.24,0,1.79a11.32,11.32,0,0,0,.18,1.52,7.29,7.29,0,0,0,.38,1.3,5.4,5.4,0,0,0,.66,1.19,6.14,6.14,0,0,0,1.61,1.53,8.61,8.61,0,0,0,1.9.94,9.11,9.11,0,0,0,2,.47,15.5,15.5,0,0,0,1.86.12,10.2,10.2,0,0,0,4.12-.69,8.26,8.26,0,0,0,2.5-1.7,6.45,6.45,0,0,0,1.19-1.78,9.84,9.84,0,0,0,.64-2.06,16.14,16.14,0,0,0,.27-2.24c0-.77.06-1.51.06-2.24,0-2.27,0-4.27.11-6a43.58,43.58,0,0,1,.41-4.7l-.55.12a3.83,3.83,0,0,1-.78.06,4.32,4.32,0,0,1-.81-.06l-.6-.12a20.86,20.86,0,0,1,.19,2.09c.05.91.09,1.84.12,2.78s.06,1.81.08,2.61,0,1.34,0,1.63,0,.51,0,1,0,1-.06,1.64-.08,1.23-.15,1.88a13.93,13.93,0,0,1-.28,1.73,5.12,5.12,0,0,1-1.22,2.49,5.94,5.94,0,0,1-1.81,1.32,5.52,5.52,0,0,1-1.77.53c-.55.06-.93.09-1.13.09a7.3,7.3,0,0,1-2.77-.53,4.76,4.76,0,0,1-2-1.44,4.48,4.48,0,0,1-.72-1.24,7.62,7.62,0,0,1-.41-1.6,16.58,16.58,0,0,1-.16-2c0-.76,0-1.62,0-2.57V249.5c0-.73,0-1.6,0-2.62s.05-2.08.09-3.23.09-2.21.15-3.2l-.82.12a6.61,6.61,0,0,1-.93.06,6.44,6.44,0,0,1-.86-.06l-.91-.12c0,.63.07,1.19.1,1.68m59.24.44a20.15,20.15,0,0,1,2.65-.28c1.1,0,2.44-.09,4-.11,0,1,0,2.18.05,3.44s0,2.59,0,4q0,3.09-.08,6.21c0,2.08-.13,4-.25,5.64a5.1,5.1,0,0,1,.63-.12,6.61,6.61,0,0,1,.93-.06l.67,0q.48,0,1.26.15c-.08-1.15-.14-2.3-.17-3.46s-.05-2.28-.06-3.39,0-2.19,0-3.23,0-2,0-2.93,0-2.07,0-3.12,0-2.1,0-3.15c1.8,0,3.21.07,4.21.15s1.73.17,2.19.24a2.67,2.67,0,0,1-.08-.48,3.3,3.3,0,0,1,0-.58,3.49,3.49,0,0,1,0-.59,2.19,2.19,0,0,1,.08-.47c-.48,0-1,.07-1.65.1s-1.28,0-2,.06-1.43,0-2.19,0h-4.25c-.74,0-1.49,0-2.23,0s-1.45,0-2.13-.06-1.26-.06-1.72-.1a4.3,4.3,0,0,1,.09.47,4.68,4.68,0,0,1,0,.59,4.85,4.85,0,0,1,0,.58,4,4,0,0,1-.09.48m20.05,11.81c0,1,0,1.88-.06,2.66s-.06,1.5-.09,2.17-.07,1.42-.14,2.25l.73-.12a5.39,5.39,0,0,1,.87-.06,7.82,7.82,0,0,1,1,.06l.88.12c0-.57,0-1.16-.07-1.78s-.06-1.32-.08-2.11,0-1.69,0-2.7,0-2.21,0-3.58c0-1.82,0-3.63.05-5.42s.09-3.6.19-5.42a7.39,7.39,0,0,1-.75.13,8.24,8.24,0,0,1-1,0,7.63,7.63,0,0,1-.95,0,5.73,5.73,0,0,1-.7-.13c0,.93.06,1.72.09,2.38s0,1.25,0,1.76,0,1,.05,1.4,0,.85,0,1.3v3.36c0,1.5,0,2.74,0,3.73m-56,7.08.66-.12a5.52,5.52,0,0,1,.93-.06c.28,0,.58,0,.89,0a6.72,6.72,0,0,1,.86.14q-.18-3.68-.2-6.1c0-1.62,0-3,0-4.07h.78c.58.69,1.16,1.39,1.73,2.11s1.16,1.49,1.76,2.31,1.22,1.7,1.85,2.64,1.31,2,2,3.11l1.16-.12a8.78,8.78,0,0,1,1-.06,6.22,6.22,0,0,1,.91.06l.87.12v-.36c-.06-.09-.27-.35-.62-.81l-1.31-1.69-1.68-2.15c-.6-.77-1.18-1.52-1.73-2.25s-1-1.39-1.49-2-.75-1-.93-1.32c.46-.08,1-.21,1.7-.38a7,7,0,0,0,1.94-.83,5.2,5.2,0,0,0,1.59-1.58,4.74,4.74,0,0,0,.66-2.64,6,6,0,0,0-.33-2,3.67,3.67,0,0,0-1.2-1.63,5.09,5.09,0,0,0-.8-.54,4.13,4.13,0,0,0-1.07-.4,11.7,11.7,0,0,0-1.54-.24c-.62-.06-1.37-.09-2.28-.09h-1.73l-1,0h-.7l-1.12,0c-.42,0-.92,0-1.5-.1q.06,2.58.12,4.92c0,1.56.06,3,.06,4.46q0,3.34-.05,6.13c0,1.87-.08,3.7-.16,5.5m3.1-17.46c0-.69,0-1.37.06-2.07.2,0,.45-.07.76-.1s.69-.05,1.13-.05a11.88,11.88,0,0,1,1.73.13,4.86,4.86,0,0,1,1.69.54,3.5,3.5,0,0,1,1.26,1.22,3.93,3.93,0,0,1,.5,2.12,4,4,0,0,1-.68,2.48,4.39,4.39,0,0,1-1.58,1.32,5.9,5.9,0,0,1-1.82.53c-.61.07-1.09.12-1.43.14l-.86,0a5.39,5.39,0,0,1-.73-.07v-.72c0-.33,0-.69,0-1.08s0-.8,0-1.22Z"/></svg>