<svg id="Layer_1" data-name="Layer 1" xmlns="http://www.w3.org/2000/svg" xmlns:xlink="http://www.w3.org/1999/xlink" viewBox="0 0 150 150"><defs><style>.cls-1{fill:none;}.cls-2{clip-path:url(#clip-path);}.cls-3{clip-path:url(#clip-path-2);}.cls-4{fill:#42474b;}.cls-5{clip-path:url(#clip-path-3);}.cls-6{clip-path:url(#clip-path-5);}.cls-7{clip-path:url(#clip-path-7);}.cls-8{clip-path:url(#clip-path-9);}.cls-9{fill:#a42561;}.cls-10{clip-path:url(#clip-path-11);}.cls-11{clip-path:url(#clip-path-13);}.cls-12{clip-path:url(#clip-path-15);}.cls-13{clip-path:url(#clip-path-17);}.cls-14{clip-path:url(#clip-path-19);}.cls-15{clip-path:url(#clip-path-21);}.cls-16{clip-path:url(#clip-path-23);}.cls-17{clip-path:url(#clip-path-25);}</style><clipPath id="clip-path"><path class="cls-1" d="M132.13,66.19V63.56c-2.38-.22-4.26-.42-6.06-.58V59.11c-1.16-.14-1.74-.23-2.87-.36v4c-1.66-.17-.92-.08-3.08-.28v2.71c2.16.2,1.42.12,3.08.25V80c0,5.43,6.11,6.15,6.72,6.2V83.62c-1.14-.11-3.85-.69-3.85-3.68V65.66c1.8.17,3.68.31,6.06.53"/></clipPath><clipPath id="clip-path-2"><rect class="cls-1" x="11.81" y="44.58" width="126.33" height="60.92"/></clipPath><clipPath id="clip-path-3"><path class="cls-1" d="M58.43,86.22V44.86l2.93.38v41H58.43"/></clipPath><clipPath id="clip-path-5"><path class="cls-1" d="M88.06,86.25H76.36c-4.76,0-7.47-2.36-7.47-7.94V64.53c0-5.54,2.57-7.94,7.49-7.47l11.68,1.16c4.81.47,7.14,3.32,7.14,8.22V79.05C95.14,84,92.79,86.25,88.06,86.25Zm4.18-19.67c0-3.35-1.55-5-4.73-5.26-4.29-.39-6.42-.55-10.68-.94-3.19-.28-5,1-5,4.76V78c0,3.71,1.9,5,5,5H87.56c2.93,0,4.68-1.08,4.68-4.37Z"/></clipPath><clipPath id="clip-path-7"><path class="cls-1" d="M125.8,49.34a13.48,13.48,0,0,0-5.32-.14,116.11,116.11,0,0,0-12.28,3.07c-.66.2-1,.31-1.66.53-3.46,1.08-6,1.91-6,6.72V86.25h2.88V63.78c4.4.36,6.61.58,11.59,1V62c-5-.47-7.19-.72-11.59-1.13V59.8c0-2.85,1-3.18,4.2-4.24l1.72-.55a123,123,0,0,1,12-3.1,11.09,11.09,0,0,1,4.32.11c.47.09.72.11,1.22.17V49.53c-.47-.08-.72-.14-1.16-.19"/></clipPath><clipPath id="clip-path-9"><path class="cls-1" d="M45,73.69c-5.45.55-10.6,1-16.08,1.6a4.42,4.42,0,0,0-4,4.7c0,1.19,0-.16,0,1,0,2.16,1.61,3.76,4.15,3.76H41.16c3.07,0,4-2.6,3.9-5.06s0-3.41,0-6"/></clipPath><clipPath id="clip-path-11"><path class="cls-1" d="M21.71,82V79.33c0-3.85,2.55-6.42,6.64-7,5.62-.77,16.83-2,16.83-2V67c.11-2.79-1.53-4.65-4.6-4-5.09.86-9.87,1.5-15.16,2.44V62.34c5.12-1,8.41-1.52,13.48-2.49,7.77-1.52,9.29,1.22,9.29,6.56,0,4.32,0,6.22,0,10.57v2.24c0,3.54,1.83,5.09,2.58,5.31A6.4,6.4,0,0,0,51.1,82V50.34c0-5.34-3.82-3.85-7.22-3.05S23.15,52.58,17.65,54s-5.73,3.18-5.73,6.47V80.57c0,5.1,1.44,5.68,5.56,5.68h6.17A5.49,5.49,0,0,1,21.71,82"/></clipPath><clipPath id="clip-path-13"><polyline class="cls-1" points="46.61 96.76 48.05 96.76 48.05 100.02 51.81 100.02 51.81 96.76 53.25 96.76 53.25 104.92 51.81 104.92 51.81 101.33 48.05 101.33 48.05 104.92 46.61 104.92 46.61 96.76"/></clipPath><clipPath id="clip-path-15"><path class="cls-1" d="M62.66,96.57A4,4,0,0,1,67,100.83a4.13,4.13,0,0,1-4.29,4.29,4.28,4.28,0,0,1,0-8.55Zm0,7.24a3,3,0,1,0-2.77-3A2.77,2.77,0,0,0,62.66,103.81Z"/></clipPath><clipPath id="clip-path-17"><polyline class="cls-1" points="73.73 98.09 71.27 98.09 71.27 96.76 77.63 96.76 77.63 98.09 75.17 98.09 75.17 104.92 73.73 104.92 73.73 98.09"/></clipPath><clipPath id="clip-path-19"><polyline class="cls-1" points="82.39 96.76 87.73 96.76 87.73 98.09 83.83 98.09 83.83 100.08 87.53 100.08 87.53 101.38 83.83 101.38 83.83 103.59 87.92 103.59 87.92 104.92 82.39 104.92 82.39 96.76"/></clipPath><clipPath id="clip-path-21"><polyline class="cls-1" points="93.12 96.76 94.56 96.76 94.56 103.59 97.99 103.59 97.99 104.92 93.12 104.92 93.12 96.76"/></clipPath><clipPath id="clip-path-23"><path class="cls-1" d="M106.76,98.53a1.68,1.68,0,0,0-1.41-.64c-.66,0-1.33.31-1.33,1.06,0,1.63,3.82.69,3.82,3.59,0,1.75-1.36,2.6-2.93,2.6a3.28,3.28,0,0,1-2.63-1.1l1.08-1.06a1.89,1.89,0,0,0,1.6.86c.67,0,1.41-.36,1.41-1.1,0-1.77-3.81-.78-3.81-3.68,0-1.69,1.46-2.47,3-2.47a3.43,3.43,0,0,1,2.32.83l-1.08,1.11"/></clipPath><clipPath id="clip-path-25"><path class="cls-1" d="M136,63.09a2.16,2.16,0,1,1-2.13,2.16A2.08,2.08,0,0,1,136,63.09Zm0,4a1.85,1.85,0,1,0-1.74-1.85A1.74,1.74,0,0,0,136,67.07Zm-.83-3.1h.94c.58,0,.89.25.89.72s-.28.64-.67.7l.72,1.1h-.41l-.67-1.08h-.41v1.08h-.39Zm.39,1.14h.38c.34,0,.67,0,.67-.42s-.31-.38-.56-.38h-.49Z"/></clipPath></defs><g class="cls-2"><g class="cls-3"><rect class="cls-4" x="114.45" y="53.1" width="23.3" height="38.73"/></g></g><g class="cls-5"><g class="cls-3"><rect class="cls-4" x="52.78" y="39.21" width="14.19" height="52.65"/></g></g><g class="cls-6"><g class="cls-3"><rect class="cls-4" x="63.21" y="51.36" width="37.57" height="40.53"/></g></g><g class="cls-7"><g class="cls-3"><rect class="cls-4" x="94.95" y="43.34" width="37.63" height="48.53"/></g></g><g class="cls-8"><g class="cls-3"><rect class="cls-9" x="19.25" y="68.04" width="31.43" height="22.38"/></g></g><g class="cls-10"><g class="cls-3"><rect class="cls-9" x="6.28" y="40.79" width="50.44" height="51.13"/></g></g><g class="cls-11"><g class="cls-3"><rect class="cls-4" x="40.97" y="91.14" width="17.9" height="19.42"/></g></g><g class="cls-12"><g class="cls-3"><rect class="cls-4" x="52.76" y="90.92" width="19.84" height="19.84"/></g></g><g class="cls-13"><g class="cls-3"><rect class="cls-4" x="65.62" y="91.14" width="17.65" height="19.42"/></g></g><g class="cls-14"><g class="cls-3"><rect class="cls-4" x="76.74" y="91.14" width="16.82" height="19.42"/></g></g><g class="cls-15"><g class="cls-3"><rect class="cls-4" x="87.48" y="91.14" width="16.13" height="19.42"/></g></g><g class="cls-16"><g class="cls-3"><rect class="cls-4" x="96.61" y="90.92" width="16.88" height="19.84"/></g></g><g class="cls-17"><g class="cls-3"><rect class="cls-4" x="128.15" y="57.45" width="15.55" height="15.6"/></g></g></svg>