<svg width="16" height="16" viewBox="0 0 16 16" fill="none" xmlns="http://www.w3.org/2000/svg">
<path d="M14.5938 2.17757H1.40625C0.630844 2.17757 0 2.80841 0 3.58382V11.7333C0 12.5087 0.630844 13.1395 1.40625 13.1395H14.5938C15.3692 13.1395 16 12.5087 16 11.7333V3.58382C16 2.80841 15.3692 2.17757 14.5938 2.17757ZM14.4102 3.11507L14.2225 3.27135L8.55794 7.98825C8.23463 8.25744 7.76531 8.25744 7.44206 7.98825L1.77747 3.27135L1.58978 3.11507H14.4102ZM0.9375 3.79188L5.55288 7.6351L0.9375 10.7068V3.79188ZM14.5938 12.202H1.40625C1.17975 12.202 0.990313 12.0405 0.946906 11.8267L6.30456 8.261L6.84219 8.70869C7.17762 8.988 7.58884 9.12766 8.00003 9.12766C8.41122 9.12766 8.82241 8.988 9.15788 8.70869L9.6955 8.261L15.0531 11.8266C15.0097 12.0405 14.8203 12.202 14.5938 12.202ZM15.0625 10.7068L10.4471 7.63513L15.0625 3.79188V10.7068Z" fill="black"/>
</svg>
