<svg xmlns="http://www.w3.org/2000/svg" viewBox="0 0 64.56 64.56"><defs><style>.cls-1{fill:#998061;}.cls-2{opacity:0.4;}.cls-3{fill:#dcd8d4;}</style></defs><g id="Layer_2" data-name="Layer 2"><g id="Layer_1-2" data-name="Layer 1"><circle class="cls-1" cx="32.28" cy="32.28" r="32.28"/><g class="cls-2"><path class="cls-3" d="M30,42.2H15.68a.39.39,0,0,1-.39-.4V23.55a.39.39,0,0,1,.39-.4H30a.4.4,0,0,1,.4.4V41.8A.4.4,0,0,1,30,42.2Zm-13.89-.8H29.57V24H16.08Z"/><path class="cls-3" d="M30,24H15.68a.4.4,0,0,1-.24-.71l7.14-5.56a.4.4,0,0,1,.49,0l7.14,5.56a.38.38,0,0,1,.13.44A.39.39,0,0,1,30,24Zm-13.13-.8h12l-6-4.65Z"/><path class="cls-3" d="M49,50.93H36.32a.4.4,0,0,1-.4-.4V42.2H32.35a.4.4,0,0,1-.4-.4V26.72a.39.39,0,0,1,.4-.39H49a.39.39,0,0,1,.4.39V50.53A.4.4,0,0,1,49,50.93Zm-12.3-.8H48.62v-23H32.75V41.4h3.57a.39.39,0,0,1,.39.4v8.33Z"/><path class="cls-3" d="M36.32,50.93H14.1a.4.4,0,0,1-.4-.4V41.8a.4.4,0,0,1,.4-.4H36.32a.39.39,0,0,1,.39.4v8.73A.39.39,0,0,1,36.32,50.93Zm-21.83-.8H35.92V42.2H14.49Z"/><path class="cls-3" d="M44.25,19.18H36.32a.39.39,0,0,1-.4-.39V14a.4.4,0,0,1,.4-.4h7.93a.4.4,0,0,1,.4.4v4.76A.39.39,0,0,1,44.25,19.18Zm-7.54-.79h7.15v-4H36.71Z"/><path class="cls-3" d="M28.38,22.36A.4.4,0,0,1,28,22V16.41a.4.4,0,0,1,.8,0V22A.4.4,0,0,1,28.38,22.36Z"/><path class="cls-3" d="M18.06,21.57a.4.4,0,0,1-.39-.4v-4a.4.4,0,1,1,.79,0v4A.4.4,0,0,1,18.06,21.57Z"/><path class="cls-3" d="M25.21,20a.4.4,0,0,1-.4-.4V14a.4.4,0,0,1,.4-.4.39.39,0,0,1,.39.4v5.55A.39.39,0,0,1,25.21,20Z"/><rect class="cls-3" x="17.27" y="25.14" width="1.59" height="3.17"/><rect class="cls-3" x="19.65" y="25.14" width="1.59" height="3.17"/><rect class="cls-3" x="22.03" y="25.14" width="1.59" height="3.17"/><rect class="cls-3" x="24.41" y="25.14" width="1.59" height="3.17"/><rect class="cls-3" x="26.79" y="25.14" width="1.59" height="3.17"/><rect class="cls-3" x="33.94" y="28.31" width="13.49" height="1.59"/><rect class="cls-3" x="33.94" y="30.69" width="13.49" height="1.59"/><rect class="cls-3" x="33.94" y="33.07" width="13.49" height="1.59"/><rect class="cls-3" x="33.94" y="35.45" width="13.49" height="1.59"/><rect class="cls-3" x="33.94" y="37.83" width="13.49" height="1.59"/><rect class="cls-3" x="38.7" y="40.21" width="8.73" height="1.59"/><rect class="cls-3" x="38.7" y="42.59" width="8.73" height="1.59"/><rect class="cls-3" x="17.27" y="29.1" width="1.59" height="3.17"/><rect class="cls-3" x="19.65" y="29.1" width="1.59" height="3.17"/><rect class="cls-3" x="22.03" y="29.1" width="1.59" height="3.17"/><rect class="cls-3" x="24.41" y="29.1" width="1.59" height="3.17"/><rect class="cls-3" x="26.79" y="29.1" width="1.59" height="3.17"/><rect class="cls-3" x="17.27" y="33.07" width="1.59" height="3.17"/><rect class="cls-3" x="19.65" y="33.07" width="1.59" height="3.17"/><rect class="cls-3" x="22.03" y="33.07" width="1.59" height="3.17"/><rect class="cls-3" x="24.41" y="33.07" width="1.59" height="3.17"/><rect class="cls-3" x="26.79" y="33.07" width="1.59" height="3.17"/><rect class="cls-3" x="17.27" y="37.04" width="1.59" height="3.17"/><rect class="cls-3" x="19.65" y="37.04" width="1.59" height="3.17"/><rect class="cls-3" x="22.03" y="37.04" width="1.59" height="3.17"/><rect class="cls-3" x="24.41" y="37.04" width="1.59" height="3.17"/><rect class="cls-3" x="26.79" y="37.04" width="1.59" height="3.17"/><path class="cls-3" d="M41.08,27.12H33.94a.4.4,0,0,1-.4-.4V18.79a.4.4,0,0,1,.4-.4h11.9a.4.4,0,0,1,.4.4v2.38a.4.4,0,0,1-.4.4H41.48v5.15A.4.4,0,0,1,41.08,27.12Zm-6.75-.79h6.35V21.17a.4.4,0,0,1,.4-.4h4.36V19.18H34.33Z"/><path class="cls-3" d="M49,27.12H41.08a.4.4,0,0,1-.4-.4V21.17a.4.4,0,0,1,.4-.4H49a.4.4,0,0,1,.4.4v5.55A.4.4,0,0,1,49,27.12Zm-7.53-.79h7.14V21.57H41.48Z"/><path class="cls-3" d="M18.86,45.37H17.27a.4.4,0,1,1,0-.79h1.59a.4.4,0,1,1,0,.79Z"/><path class="cls-3" d="M33.14,45.37H21.24a.4.4,0,1,1,0-.79h11.9a.4.4,0,1,1,0,.79Z"/><path class="cls-3" d="M18.86,47.75H17.27a.39.39,0,0,1-.4-.39.4.4,0,0,1,.4-.4h1.59a.4.4,0,0,1,.4.4A.39.39,0,0,1,18.86,47.75Z"/><path class="cls-3" d="M33.14,47.75H21.24a.39.39,0,0,1-.4-.39.4.4,0,0,1,.4-.4h11.9a.4.4,0,0,1,.4.4A.39.39,0,0,1,33.14,47.75Z"/></g></g></g></svg>