<svg id="Layer_1" data-name="Layer 1" xmlns="http://www.w3.org/2000/svg" viewBox="0 0 150 150"><defs><style>.cls-1{fill-rule:evenodd;}</style></defs><path class="cls-1" d="M8.47,83.79c-.8.48-3.09,1.61-4.89,1.35,0,0-2-.23-2.13-1.11-.14-1,1-1.38,1.8-1.53a13.23,13.23,0,0,1,6,.84l-.1.06-.65.39Zm16-3c.71-1.23,2-3.31,3.85-4.14a.92.92,0,0,1,1.29.39c.15.39.21.83-.58,1.66a8.29,8.29,0,0,1-4.56,2.09Zm-.19.37c1.55.07,6-1.59,6-3.9-.23-1.22-1.69-1-2.52-.79-2.15.64-4,3-5,4.56A5.52,5.52,0,0,1,20,83.37a11.19,11.19,0,0,1-5.73.46c-1.17-.2-1.56-.3-3.6-.8,2.22-1.8,3.62-4.37,5.21-6.67a14.41,14.41,0,0,0,11-7.22c1-1.8,1.33-4.36-1.09-4.78-1.4-.25-2.63.36-4,1.3-3.85,2.67-5.87,6.62-7.84,10.54a8.3,8.3,0,0,1-2.52-.07,9.23,9.23,0,0,1-3.54-1.45,6.84,6.84,0,0,1-2.51-7.44l-.48.19a7,7,0,0,0,.72,5.44A6.71,6.71,0,0,0,9.45,76a9.49,9.49,0,0,0,3.77.64l.57,0-.29.56a39.76,39.76,0,0,1-2,3.57c-.09.13-.23.36-.33.5-.46.61-.83,1-1.34,1.59-2.48-.69-5.52-1.09-7.34-.41,0,0-1.24.37-1.29,1.4-.06,1.35,2.12,1.66,2.12,1.66,2.25.38,4.33-.42,6.55-1.87,2.13.73,4.71,2.4,7.34,2.05a5.52,5.52,0,0,0,1.8-.51,7.57,7.57,0,0,0,1.35-.79,11.71,11.71,0,0,0,2.27-2.5A3.5,3.5,0,0,0,22.49,84a1.9,1.9,0,0,0,1.43,1.31c2.75.63,4.89-1.48,6.46-3.62l-.29,0C29.14,83,26.82,85.64,24.36,85c-1.53-.76-.63-2.71,0-3.88ZM16,76l.22-.41c1.94-3.51,3.54-7.2,6.7-9.84,1.34-1.12,4.62-1.81,4,1.58-1,3.81-5.92,7.94-10.32,8.59L16,76Z"/><polygon class="cls-1" points="68.11 66.6 62.05 66.6 62.05 73.22 67.6 73.22 68.24 72.53 68.24 75.57 67.56 74.88 62.05 74.88 62.05 83.42 68.46 83.42 69.5 82.47 69.12 85.08 58.25 85.08 59.28 84.28 59.28 65.92 58.3 64.94 68.99 64.94 68.99 67.27 68.11 66.6 68.11 66.6"/><polygon class="cls-1" points="91.11 85.11 90.26 84.27 90.26 65.92 91.11 64.94 86.61 64.94 87.48 65.92 87.48 84.27 86.61 85.11 91.11 85.11 91.11 85.11"/><path class="cls-1" d="M85.76,85.1H82.57L75.31,73.93H78a3.5,3.5,0,0,0,3.35-3.69c0-2-1.17-3.54-3.11-3.54H74.86V84.27l1,.84H71.21l.87-.84V65.92l-.87-1h7.45c3.32,0,5.8,2.27,5.66,5.53-.13,2.77-1.66,4.63-5,5l6.41,9.59Z"/><polygon class="cls-1" points="38.77 64.17 46.15 79.99 52.94 64.26 56.45 84.28 57.47 85.1 52.55 85.1 53.72 84.18 51.53 72.39 45.49 85.83 39.16 72.2 37.21 84.28 37.99 85.1 34.63 85.1 35.41 84.33 38.77 64.17 38.77 64.17"/><polygon class="cls-1" points="127.96 66.61 121.9 66.61 121.9 73.23 127.45 73.23 128.09 72.54 128.09 75.58 127.4 74.89 121.9 74.89 121.9 83.43 128.3 83.43 129.35 82.53 128.97 85.09 118.1 85.09 119.12 84.29 119.12 65.93 118.15 64.95 128.79 64.95 128.79 67.28 127.96 66.61 127.96 66.61"/><path class="cls-1" d="M99.07,85.11l-5.69,0,.87-.83V65.89l-.87-1h6.4a11.88,11.88,0,0,1,6.56,2c3.34,2.46,3.39,7.84,3.39,7.84a11.38,11.38,0,0,1-2.32,7.4c-2.51,3.09-7.86,3-7.86,3Zm0-1.66c0-.11,8,1.07,8-8.57,0-8.5-7.36-8.35-7.36-8.35H97V83.45Z"/><polygon class="cls-1" points="115.73 85.11 114.88 84.27 114.88 65.92 115.73 64.94 111.22 64.94 112.1 65.92 112.1 84.27 111.22 85.11 115.73 85.11 115.73 85.11"/><polygon class="cls-1" points="133.59 84.18 134.56 85.1 130.86 85.1 131.88 84.18 131.93 84.18 131.93 64.46 146.39 79.58 146.39 65.92 145.52 64.94 148.83 64.94 148.05 65.92 148.05 85.44 133.59 70.01 133.59 84.18 133.59 84.18"/></svg>