<svg width="16" height="16" viewBox="0 0 16 16" fill="none" xmlns="http://www.w3.org/2000/svg">
<path fill-rule="evenodd" clip-rule="evenodd" d="M4.7337 14.001L7.42741 11.5764C7.53234 11.482 7.66851 11.4296 7.8097 11.4296H14.2857C14.6013 11.4296 14.8571 11.1738 14.8571 10.8582L14.8572 1.71529C14.8572 1.39969 14.6013 1.14385 14.2857 1.14385H1.71428C1.39868 1.14385 1.14285 1.39969 1.14285 1.71529V10.8582C1.14285 11.1738 1.39868 11.4296 1.71428 11.4296H4.38114C4.40236 11.4296 4.42356 11.4308 4.44465 11.4331C4.566 11.4467 4.67421 11.4973 4.75925 11.5724C4.79308 11.6023 4.82323 11.6361 4.8491 11.6729C4.92628 11.7829 4.96521 11.9204 4.94913 12.0644L4.7337 14.001ZM3.53214 15.7576C3.45507 15.6478 3.41613 15.5105 3.43202 15.3667L3.74287 12.5724H1.71428C0.767511 12.5724 0 11.8049 0 10.8582V1.71529C0 0.768518 0.767511 0.00100708 1.71428 0.00100708H14.2857C15.2325 0.00100708 16 0.768518 16 1.71529V10.8582C16 11.1021 15.949 11.3342 15.8572 11.5443C15.8085 11.6556 15.7484 11.7607 15.6783 11.8582C15.3671 12.2907 14.8593 12.5724 14.2857 12.5724H8.02915L4.38231 15.8542C4.2785 15.9476 4.14475 15.9992 4.00667 16.0008C3.98361 16.0011 3.96044 16 3.93726 15.9974C3.76739 15.9787 3.62317 15.8873 3.53214 15.7576Z" fill="#fff"/>
</svg>
