<svg id="Layer_1" data-name="Layer 1" xmlns="http://www.w3.org/2000/svg" viewBox="0 0 150 150"><defs><style>.cls-1{fill:#444;}</style></defs><path d="M32.2,86.89c-5.22-.36-17.62,2.36-15.09-6.57,5.22-9.71,5.8-27.72,19.66-28.25,35.52-1.39,24.3,1.43,14.85,28.32-3,8.34-12.44,6.29-19.42,6.46ZM30.83,81.1c5.61,1.46,6.74.93,8.74-3.89,2.67-6.72,5.62-12.92,8-19.82-3.92.1-7.39-1.09-8.71,3.51C36.43,67.73,32.91,74.16,30.83,81.1Z"/><path d="M123.1,87.32c-1,4.5-1,4.51-5.08,4.51-9.38,0-18.77,0-28.15,0-3.82,0-4.76-1.32-3.32-4.86,4.48-7.25,8.13-30.43,17.83-29.3,7.85.2,15.7.05,23.55.07,5.33,0,6.88,2.3,4.87,7.17-5.91,16.34-5.28,11.71-21.14,12.29,0-4.42,2.33-2.39,4.4-4.38C116.62,70,122,63.23,118,61.85c-3.22-.3-7.58-.9-9.25,2.56C98.24,90.51,93.63,87.46,123.1,87.32Z"/><path d="M10.45,97c1.08-4.75,1.08-4.75,5.25-4.75,10.75,0,21.5-.08,32.24.06,2.72,0,4.06-1,5-3.42,4.65-11.56,9.44-23.06,14.17-34.59C69.38,48.88,72.09,47,77.86,47c20.56.14,41.14-.24,61.69.21-.87,4.5-.94,4.56-4.93,4.56-11.74,0-23.48.06-35.22,0a4.31,4.31,0,0,0-4.67,3.11C70.56,113.07,88.64,93.82,10.45,97Z"/><path class="cls-1" d="M91,97.83c2.18,2.87-1.67,7.13-4.42,4.28C84.12,99.16,88.29,94.73,91,97.83Zm-.7,3.71c1.55-2.08-.79-5.48-3-3.38C85.43,100.12,88.16,104.06,90.32,101.54Z"/><path class="cls-1" d="M93.93,97c2.07-.23,6.55.07,3.72,3,1.23.33.29,2.11,1,2.73v.13h-1c-.19-2.82-.24-2.53-3-2.5v2.5h-.79Zm2.57,2.68a1,1,0,0,0,.73-1.88,11.52,11.52,0,0,0-2.51-.12v2Z"/><path class="cls-1" d="M101.19,97H102v5.83h-.79Z"/><path class="cls-1" d="M104.64,97h4.23v.72h-3.46v1.77h3.2v.67h-3.2v2h3.52v.69h-4.29Z"/><path class="cls-1" d="M111.29,97h.93l2.91,4.72V97h.75v5.83H115L112,98.12v4.7h-.75Z"/><path class="cls-1" d="M122.7,97v.7h-2v5.13h-.8V97.69h-2V97Z"/><path class="cls-1" d="M126.43,97h.89l2.12,5.83h-.87l-.61-1.74h-2.28l-.64,1.74h-.81Zm1.31,3.45-.9-2.58-.93,2.58Z"/><path class="cls-1" d="M131.45,97h.79v5.14h2.93v.69h-3.72Z"/></svg>