<svg width="16" height="16" viewBox="0 0 16 16" fill="none" xmlns="http://www.w3.org/2000/svg">
<g clip-path="url(#clip0)">
<path d="M15.211 12.0959L15.211 12.096C15.5591 12.444 15.593 13.0923 15.1982 13.5547L13.6958 15.0571L14.0286 15.3898L13.6958 15.0571C13.4164 15.3365 12.9957 15.4989 12.4075 15.5C11.815 15.5011 11.087 15.3365 10.262 14.9979C8.61366 14.3215 6.67371 12.9897 4.83358 11.1496C2.99509 9.31111 1.6831 7.37195 1.0161 5.72352C0.682279 4.8985 0.519007 4.16846 0.516822 3.57296C0.514656 2.9826 0.669201 2.56066 0.931014 2.28244L2.44125 0.772212C2.78932 0.424138 3.43758 0.390257 3.90001 0.784977L6.12009 3.00506C6.66781 3.55278 6.42262 4.4444 5.76839 4.6457L5.76835 4.64557L5.75734 4.64924C4.82891 4.95868 4.15308 5.99896 4.47705 7.0143C4.71215 7.97414 5.41796 8.98186 6.232 9.78559C7.05217 10.5954 8.06534 11.2801 8.98395 11.5098L8.9839 11.5099L8.99673 11.5128C9.94069 11.7226 11.0062 11.2092 11.3339 10.2259L11.3341 10.2259L11.3375 10.2148C11.5388 9.56058 12.4304 9.31539 12.9781 9.86309L15.211 12.0959Z" stroke="black"/>
</g>
<defs>
<clipPath id="clip0">
<rect width="16" height="16" fill="white"/>
</clipPath>
</defs>
</svg>
