<?xml version="1.0" encoding="utf-8"?>
<!-- Generator: Adobe Illustrator 25.4.1, SVG Export Plug-In . SVG Version: 6.00 Build 0)  -->
<svg version="1.1" id="Layer_1" xmlns="http://www.w3.org/2000/svg" xmlns:xlink="http://www.w3.org/1999/xlink" x="0px" y="0px"
	 viewBox="0 0 800 528.14" style="enable-background:new 0 0 800 528.14;" xml:space="preserve">
<style type="text/css">
	.st0{fill:#FFFFFF;}
	.st1{fill:#133A1D;}
	.st2{fill:#88722C;}
	.st3{fill:none;stroke:#88722C;stroke-width:3;stroke-miterlimit:10;}
	.st4{fill:none;stroke:#FFFFFF;stroke-width:3;stroke-miterlimit:10;}
</style>
<rect x="1459.03" y="-3545.35" class="st0" width="1920" height="1080"/>
<rect x="3496.25" y="-3545.35" class="st1" width="1920" height="1080"/>
<rect x="-560" y="-3545.35" class="st2" width="1920" height="1080"/>
<rect x="-2597.22" y="-3545.35" class="st0" width="1920" height="1080"/>
<g>
	<g>
		<path class="st2" d="M-2017.22-2772.19c-5.54,0-10.26-1.95-14.16-5.84c-3.89-3.89-5.84-8.64-5.84-14.26
			c0-5.48,1.95-10.16,5.84-14.06c3.83-3.96,8.55-5.94,14.16-5.94h37.22v11.48h-37.22c-1.19,0-2.31,0.21-3.37,0.64
			c-1.05,0.43-1.98,1.04-2.77,1.83c-0.79,0.79-1.4,1.72-1.83,2.77c-0.43,1.05-0.64,2.14-0.64,3.27c0,2.38,0.82,4.42,2.47,6.14
			c1.65,1.72,3.7,2.57,6.14,2.57h17.13c5.54,0,10.26,1.95,14.16,5.84c3.96,3.89,5.94,8.61,5.94,14.16c0,5.48-1.98,10.2-5.94,14.15
			c-3.9,3.89-8.61,5.84-14.16,5.84h-37.13v-11.48h37.13c1.19,0,2.31-0.21,3.37-0.64c1.05-0.43,1.98-1.02,2.77-1.78
			c0.79-0.76,1.4-1.67,1.83-2.72c0.43-1.05,0.65-2.18,0.65-3.36c0-2.31-0.86-4.32-2.58-6.04c-1.65-1.71-3.66-2.57-6.04-2.57
			H-2017.22z"/>
		<path class="st2" d="M-1934.46-2812.28h57.32v11.48h-22.87v57.22h-11.48v-57.22h-22.97V-2812.28z"/>
		<path class="st2" d="M-1846.78-2752.97c0-6.44,4.63-10.94,10.42-10.94c5.79,0,10.43,4.5,10.43,10.94
			c0,6.57-4.63,10.94-10.43,10.94C-1842.14-2742.03-1846.78-2746.41-1846.78-2752.97z"/>
		<path class="st2" d="M-1782.2-2758.43c2.24,2.24,4.92,3.37,8.02,3.37c3.17,0,5.84-1.09,8.02-3.27c2.24-2.24,3.37-4.95,3.37-8.12
			v-45.83h11.58v45.83c0,6.27-2.24,11.68-6.73,16.24c-4.62,4.42-10.03,6.63-16.24,6.63c-6.34,0-11.75-2.21-16.24-6.63
			L-1782.2-2758.43z"/>
		<path class="st2" d="M-1659.94-2812.28v11.48h-34.35v17.22h34.35v11.39h-34.35v17.13h34.35v11.48h-45.74v-68.7H-1659.94z"/>
		<path class="st2" d="M-1570.35-2743.58l-13.27-22.87h-19.4v22.87h-11.39v-68.7h34.35c6.27,0,11.65,2.24,16.14,6.73
			c4.49,4.49,6.73,9.87,6.73,16.14c0,4.75-1.36,9.08-4.06,12.97c-2.64,3.83-6.01,6.57-10.1,8.22l14.16,24.65H-1570.35z
			 M-1580.05-2800.8h-22.97v22.77l22.97,0.1c3.1,0,5.77-1.12,8.02-3.36c2.24-2.24,3.37-4.95,3.37-8.12c0-3.1-1.12-5.77-3.37-8.02
			C-1574.28-2799.67-1576.95-2800.8-1580.05-2800.8z"/>
		<path class="st2" d="M-1477.29-2812.28c9.5,0,17.59,3.36,24.26,10.1c6.8,6.73,10.2,14.82,10.2,24.25c0,9.57-3.4,17.66-10.2,24.26
			c-6.67,6.73-14.75,10.1-24.26,10.1c-9.5,0-17.59-3.37-24.26-10.1c-6.73-6.67-10.1-14.75-10.1-24.26c0-9.44,3.37-17.52,10.1-24.25
			C-1494.95-2808.92-1486.86-2812.28-1477.29-2812.28z M-1477.29-2800.8c-6.27,0-11.68,2.24-16.24,6.73
			c-4.42,4.49-6.63,9.87-6.63,16.14c0,6.27,2.21,11.68,6.63,16.24c4.55,4.42,9.97,6.63,16.24,6.63c6.27,0,11.65-2.21,16.14-6.63
			c4.49-4.55,6.73-9.97,6.73-16.24c0-6.27-2.24-11.65-6.73-16.14C-1465.65-2798.55-1471.02-2800.8-1477.29-2800.8z"/>
		<path class="st2" d="M-1385.92-2784.66v41.08h-11.39v-68.7l34.35,34.35l34.45-34.35v68.7h-11.58v-41.08l-22.87,22.97
			L-1385.92-2784.66z"/>
		<path class="st2" d="M-1237.22-2812.28v11.48h-34.35v17.22h34.35v11.39h-34.35v17.13h34.35v11.48h-45.74v-68.7H-1237.22z"/>
	</g>
	<g>
		<polygon class="st2" points="-1680.26,-3138.45 -1594.19,-3138.45 -1594.19,-3175.25 -1616.91,-3158.96 -1637.22,-3197.17 
			-1657.33,-3159.66 -1680.26,-3174.24 		"/>
		<g>
			<path class="st2" d="M-1707.48-3122.87c21.97,0,43.36,0,65.08,0c0,22.96,0,45.86,0,69.56c-2.11-2.01-3.93-3.69-5.69-5.43
				c-4.35-4.31-8.59-8.75-13.05-12.94c-1.98-1.86-2.76-3.79-2.7-6.5c0.17-7.53,0.06-15.07,0.06-22.87c-7.43,0-14.41,0-22.2,0
				c0,4.07-0.37,8.11,0.17,12.02c0.24,1.76,2.16,3.43,3.59,4.86c12.38,12.35,24.79,24.67,37.29,36.89c2.02,1.97,2.93,3.91,2.92,6.8
				c-0.11,28.09-0.07,86.8-0.07,88.94c-1.27-1.34-43.18-55.21-63.45-81.47c-0.84-1.09-1.83-2.47-1.85-3.73
				c-0.15-10.91-0.08-21.82-0.08-33.69c4.12,4.02,7.61,7.42,11.08,10.83c2.33,2.29,4.54,4.71,6.97,6.89
				c2.45,2.19,4.28,4.48,3.66,8.05c-0.14,0.8,0.17,1.9,0.67,2.55c6.72,8.8,13.51,17.54,21.21,26.1c0-6.29,0.11-12.58-0.11-18.86
				c-0.04-1.03-1.45-2.08-2.35-2.99c-9.4-9.44-18.83-18.86-28.26-28.28c-3.04-3.04-5.95-6.21-9.15-9.06
				c-2.72-2.43-3.92-5.04-3.82-8.83c0.28-11.36,0.1-22.73,0.1-34.1C-1707.48-3119.55-1707.48-3120.97-1707.48-3122.87z"/>
			<path class="st2" d="M-1631.94-2951.48c0-30.98,0-61.6,0-92.06c7.12,0,13.97,0,21.25,0c0,9.2-0.06,29.38-0.06,29.38
				s14.67-18.89,20.5-26.59c0.88-1.16,1.65-2.77,1.66-4.18c0.1-18.15,0.09-55.43-0.07-56.26c-14.28,0-28.71,0-43.23,0
				c0-7.34,0-14.31,0-21.56c21.55,0,43.01,0,65.02,0c0,1.47,0,2.87,0,4.26c0,16.44,0,32.88,0,49.32c0,10.17,0.07,20.34-0.06,30.51
				c-0.02,1.7-0.47,3.73-1.46,5.03C-1588.99-3006.82-1631.12-2952.25-1631.94-2951.48z"/>
		</g>
	</g>
	<g>
		<g>
			<path class="st3" d="M-1609.14-3241.14c9.17,1.54,18.75,0.7,27.76-2.68l0,0c16.56-6.22,33.81-3.71,47.32,4.75
				c13.52,8.46,23.3,22.89,24.94,40.5l0,0c0.89,9.59,4.32,18.57,9.71,26.15c5.39,7.58,12.76,13.76,21.52,17.73l0,0
				c16.11,7.31,26.53,21.28,30.1,36.82c3.57,15.54,0.29,32.66-11,46.27l0,0c-6.15,7.41-10.08,16.18-11.62,25.35
				c-1.54,9.17-0.7,18.75,2.68,27.76l0,0c6.22,16.56,3.71,33.81-4.75,47.32c-8.46,13.52-22.89,23.3-40.5,24.94l0,0
				c-9.59,0.89-18.57,4.32-26.15,9.71c-7.58,5.39-13.76,12.76-17.73,21.52l0,0c-7.31,16.11-21.28,26.53-36.82,30.1
				c-15.54,3.57-32.66,0.29-46.27-11l0,0c-7.41-6.15-16.18-10.08-25.35-11.62c-9.17-1.54-18.75-0.7-27.76,2.68l0,0
				c-16.56,6.22-33.81,3.71-47.32-4.75c-13.52-8.46-23.3-22.89-24.94-40.5l0,0c-0.89-9.59-4.32-18.57-9.71-26.15
				c-5.39-7.58-12.76-13.76-21.52-17.73l0,0c-16.11-7.31-26.53-21.28-30.1-36.82c-3.57-15.54-0.29-32.66,11-46.27l0,0
				c6.15-7.41,10.08-16.18,11.62-25.35c1.54-9.17,0.7-18.75-2.68-27.76l0,0c-6.22-16.56-3.71-33.81,4.75-47.32
				c8.46-13.52,22.89-23.3,40.5-24.94l0,0c9.59-0.89,18.57-4.32,26.15-9.71c7.58-5.39,13.76-12.76,17.73-21.52h0
				c7.31-16.11,21.28-26.53,36.82-30.1c15.54-3.57,32.66-0.29,46.27,11l0,0C-1627.08-3246.61-1618.31-3242.68-1609.14-3241.14z"/>
			<path class="st3" d="M-1545.85-3216.69c7.83,5.02,16.96,8.02,26.58,8.44l0,0c17.67,0.79,32.55,9.87,41.65,22.97
				c9.1,13.1,12.44,30.2,7.02,47.04l0,0c-2.95,9.16-3.33,18.77-1.35,27.86c1.98,9.09,6.33,17.66,12.82,24.77l0,0
				c11.94,13.05,16.03,29.99,13.21,45.69c-2.82,15.7-12.56,30.15-28.3,38.23l0,0c-8.57,4.4-15.62,10.92-20.65,18.75
				c-5.02,7.83-8.02,16.96-8.44,26.58l0,0c-0.79,17.67-9.87,32.55-22.97,41.65c-13.1,9.1-30.2,12.44-47.04,7.02l0,0
				c-9.16-2.95-18.77-3.33-27.86-1.35c-9.09,1.98-17.66,6.33-24.77,12.82l0,0c-13.05,11.94-29.99,16.03-45.69,13.21
				c-15.7-2.82-30.15-12.56-38.23-28.3l0,0c-4.4-8.57-10.92-15.62-18.75-20.65c-7.83-5.02-16.96-8.02-26.58-8.44l0,0
				c-17.67-0.79-32.55-9.87-41.65-22.97c-9.1-13.1-12.44-30.2-7.02-47.04l0,0c2.95-9.17,3.33-18.77,1.35-27.86
				c-1.98-9.09-6.33-17.66-12.82-24.77l0,0c-11.94-13.05-16.03-29.99-13.21-45.69c2.82-15.7,12.56-30.15,28.3-38.23l0,0
				c8.57-4.4,15.62-10.92,20.65-18.75c5.02-7.83,8.02-16.96,8.44-26.58l0,0c0.79-17.67,9.87-32.54,22.97-41.65
				s30.2-12.44,47.04-7.02l0,0c9.17,2.95,18.77,3.33,27.86,1.35c9.09-1.98,17.66-6.33,24.77-12.82l0,0
				c13.05-11.94,29.99-16.03,45.69-13.21c15.7,2.82,30.15,12.56,38.23,28.3l0,0C-1560.2-3228.77-1553.67-3221.71-1545.85-3216.69z"
				/>
		</g>
		<g>
			<path class="st3" d="M-1705.03-3229.3c8.52-3.73,16.08-9.67,21.77-17.44l0,0c10.45-14.27,26.26-21.61,42.21-21.93
				c15.95-0.31,32.03,6.4,43.04,20.24l0,0c5.99,7.54,13.77,13.18,22.44,16.57c8.66,3.39,18.21,4.53,27.72,3.06h0
				c17.48-2.7,33.85,3.29,45.35,14.34c11.5,11.05,18.12,27.17,16.12,44.75v0c-1.09,9.57,0.42,19.06,4.15,27.58
				c3.73,8.52,9.67,16.08,17.44,21.77l0,0c14.27,10.45,21.61,26.26,21.93,42.21c0.31,15.95-6.4,32.03-20.24,43.04l0,0
				c-7.54,5.99-13.18,13.77-16.57,22.44c-3.39,8.66-4.53,18.21-3.06,27.72v0c2.7,17.48-3.29,33.85-14.34,45.35
				c-11.05,11.5-27.17,18.12-44.75,16.12h0c-9.57-1.09-19.06,0.42-27.58,4.15s-16.08,9.67-21.77,17.44l0,0
				c-10.45,14.27-26.26,21.61-42.21,21.93c-15.95,0.31-32.03-6.4-43.04-20.24l0,0c-5.99-7.54-13.77-13.18-22.44-16.57
				c-8.66-3.39-18.21-4.53-27.72-3.06h0c-17.48,2.7-33.85-3.29-45.35-14.34c-11.5-11.05-18.12-27.17-16.12-44.75v0
				c1.09-9.57-0.42-19.06-4.15-27.58c-3.73-8.52-9.67-16.08-17.44-21.77l0,0c-14.27-10.45-21.61-26.26-21.93-42.21
				c-0.31-15.95,6.4-32.03,20.24-43.04l0,0c7.54-5.99,13.18-13.77,16.57-22.44c3.39-8.66,4.53-18.21,3.06-27.72v0
				c-2.7-17.48,3.29-33.85,14.34-45.35c11.05-11.5,27.17-18.12,44.75-16.12h0C-1723.04-3224.06-1713.55-3225.57-1705.03-3229.3z"/>
		</g>
	</g>
</g>
<g>
	<g>
		<path class="st0" d="M20-2772.19c-5.54,0-10.26-1.95-14.16-5.84S0-2786.67,0-2792.28c0-5.48,1.95-10.16,5.84-14.06
			c3.83-3.96,8.55-5.94,14.16-5.94h37.22v11.48H20c-1.19,0-2.31,0.21-3.37,0.64c-1.05,0.43-1.98,1.04-2.77,1.83
			c-0.79,0.79-1.4,1.72-1.83,2.77s-0.64,2.14-0.64,3.27c0,2.38,0.82,4.42,2.47,6.14c1.65,1.72,3.7,2.57,6.14,2.57h17.13
			c5.54,0,10.26,1.95,14.16,5.84c3.96,3.89,5.94,8.61,5.94,14.16c0,5.48-1.98,10.2-5.94,14.15c-3.9,3.89-8.61,5.84-14.16,5.84H0
			v-11.48h37.13c1.19,0,2.31-0.21,3.37-0.64c1.05-0.43,1.98-1.02,2.77-1.78c0.79-0.76,1.4-1.67,1.83-2.72
			c0.43-1.05,0.65-2.18,0.65-3.36c0-2.31-0.86-4.32-2.58-6.04c-1.65-1.71-3.66-2.57-6.04-2.57H20z"/>
		<path class="st0" d="M102.76-2812.28h57.32v11.48h-22.87v57.22h-11.48v-57.22h-22.97V-2812.28z"/>
		<path class="st0" d="M190.45-2752.97c0-6.44,4.63-10.94,10.42-10.94c5.79,0,10.43,4.5,10.43,10.94c0,6.57-4.63,10.94-10.43,10.94
			C195.08-2742.03,190.45-2746.41,190.45-2752.97z"/>
		<path class="st0" d="M255.02-2758.43c2.24,2.24,4.92,3.37,8.02,3.37c3.17,0,5.84-1.09,8.02-3.27c2.24-2.24,3.37-4.95,3.37-8.12
			v-45.83H286v45.83c0,6.27-2.24,11.68-6.73,16.24c-4.62,4.42-10.03,6.63-16.24,6.63c-6.34,0-11.75-2.21-16.24-6.63L255.02-2758.43z
			"/>
		<path class="st0" d="M377.28-2812.28v11.48h-34.35v17.22h34.35v11.39h-34.35v17.13h34.35v11.48h-45.74v-68.7H377.28z"/>
		<path class="st0" d="M466.87-2743.58l-13.27-22.87h-19.4v22.87h-11.39v-68.7h34.35c6.27,0,11.65,2.24,16.14,6.73
			c4.49,4.49,6.73,9.87,6.73,16.14c0,4.75-1.36,9.08-4.06,12.97c-2.64,3.83-6.01,6.57-10.1,8.22l14.16,24.65H466.87z M457.17-2800.8
			H434.2v22.77l22.97,0.1c3.1,0,5.77-1.12,8.02-3.36c2.24-2.24,3.37-4.95,3.37-8.12c0-3.1-1.13-5.77-3.37-8.02
			C462.94-2799.67,460.27-2800.8,457.17-2800.8z"/>
		<path class="st0" d="M559.93-2812.28c9.5,0,17.59,3.36,24.26,10.1c6.8,6.73,10.2,14.82,10.2,24.25c0,9.57-3.4,17.66-10.2,24.26
			c-6.67,6.73-14.75,10.1-24.26,10.1s-17.59-3.37-24.26-10.1c-6.73-6.67-10.1-14.75-10.1-24.26c0-9.44,3.37-17.52,10.1-24.25
			C542.27-2808.92,550.36-2812.28,559.93-2812.28z M559.93-2800.8c-6.27,0-11.68,2.24-16.24,6.73c-4.42,4.49-6.63,9.87-6.63,16.14
			c0,6.27,2.21,11.68,6.63,16.24c4.55,4.42,9.97,6.63,16.24,6.63c6.27,0,11.65-2.21,16.14-6.63c4.49-4.55,6.73-9.97,6.73-16.24
			c0-6.27-2.24-11.65-6.73-16.14C571.58-2798.55,566.2-2800.8,559.93-2800.8z"/>
		<path class="st0" d="M651.3-2784.66v41.08h-11.39v-68.7l34.35,34.35l34.45-34.35v68.7h-11.58v-41.08l-22.87,22.97L651.3-2784.66z"
			/>
		<path class="st0" d="M800-2812.28v11.48h-34.35v17.22H800v11.39h-34.35v17.13H800v11.48h-45.74v-68.7H800z"/>
	</g>
	<g>
		<polygon class="st0" points="356.97,-3138.45 443.03,-3138.45 443.03,-3175.25 420.31,-3158.96 400,-3197.17 379.89,-3159.66 
			356.97,-3174.24 		"/>
		<g>
			<path class="st0" d="M329.74-3122.87c21.97,0,43.36,0,65.08,0c0,22.96,0,45.86,0,69.56c-2.11-2.01-3.93-3.69-5.69-5.43
				c-4.35-4.31-8.59-8.75-13.05-12.94c-1.98-1.86-2.76-3.79-2.7-6.5c0.17-7.53,0.06-15.07,0.06-22.87c-7.43,0-14.41,0-22.2,0
				c0,4.07-0.37,8.11,0.17,12.02c0.24,1.76,2.16,3.43,3.59,4.86c12.38,12.35,24.79,24.67,37.29,36.89c2.02,1.97,2.93,3.91,2.92,6.8
				c-0.11,28.09-0.07,86.8-0.07,88.94c-1.27-1.34-43.18-55.21-63.45-81.47c-0.84-1.09-1.83-2.47-1.85-3.73
				c-0.15-10.91-0.08-21.82-0.08-33.69c4.12,4.02,7.61,7.42,11.08,10.83c2.33,2.29,4.54,4.71,6.97,6.89
				c2.45,2.19,4.28,4.48,3.66,8.05c-0.14,0.8,0.17,1.9,0.67,2.55c6.72,8.8,13.51,17.54,21.21,26.1c0-6.29,0.11-12.58-0.11-18.86
				c-0.04-1.03-1.45-2.08-2.35-2.99c-9.4-9.44-18.83-18.86-28.26-28.28c-3.04-3.04-5.95-6.21-9.15-9.06
				c-2.72-2.43-3.92-5.04-3.82-8.83c0.28-11.36,0.1-22.73,0.1-34.1C329.74-3119.55,329.74-3120.97,329.74-3122.87z"/>
			<path class="st0" d="M405.28-2951.48c0-30.98,0-61.6,0-92.06c7.12,0,13.97,0,21.25,0c0,9.2-0.06,29.38-0.06,29.38
				s14.67-18.89,20.5-26.59c0.88-1.16,1.65-2.77,1.66-4.18c0.1-18.15,0.09-55.43-0.07-56.26c-14.28,0-28.71,0-43.23,0
				c0-7.34,0-14.31,0-21.56c21.55,0,43.01,0,65.02,0c0,1.47,0,2.87,0,4.26c0,16.44,0,32.88,0,49.32c0,10.17,0.07,20.34-0.06,30.51
				c-0.02,1.7-0.47,3.73-1.46,5.03C448.23-3006.82,406.1-2952.25,405.28-2951.48z"/>
		</g>
	</g>
	<g>
		<g>
			<path class="st4" d="M428.08-3241.14c9.17,1.54,18.75,0.7,27.76-2.68l0,0c16.56-6.22,33.81-3.71,47.32,4.75
				c13.52,8.46,23.3,22.89,24.94,40.5l0,0c0.89,9.59,4.32,18.57,9.71,26.15c5.39,7.58,12.76,13.76,21.52,17.73l0,0
				c16.11,7.31,26.53,21.28,30.1,36.82c3.57,15.54,0.29,32.66-11,46.27l0,0c-6.15,7.41-10.08,16.18-11.62,25.35
				c-1.54,9.17-0.7,18.75,2.68,27.76l0,0c6.22,16.56,3.71,33.81-4.75,47.32c-8.46,13.52-22.89,23.3-40.5,24.94l0,0
				c-9.59,0.89-18.57,4.32-26.15,9.71c-7.58,5.39-13.76,12.76-17.73,21.52l0,0c-7.31,16.11-21.28,26.53-36.82,30.1
				c-15.54,3.57-32.66,0.29-46.27-11l0,0c-7.41-6.15-16.18-10.08-25.35-11.62c-9.17-1.54-18.75-0.7-27.76,2.68l0,0
				c-16.56,6.22-33.81,3.71-47.32-4.75c-13.52-8.46-23.3-22.89-24.94-40.5l0,0c-0.89-9.59-4.32-18.57-9.71-26.15
				c-5.39-7.58-12.76-13.76-21.52-17.73l0,0c-16.11-7.31-26.53-21.28-30.1-36.82c-3.57-15.54-0.29-32.66,11-46.27l0,0
				c6.15-7.41,10.08-16.18,11.62-25.35c1.54-9.17,0.7-18.75-2.68-27.76l0,0c-6.22-16.56-3.71-33.81,4.75-47.32
				c8.46-13.52,22.89-23.3,40.5-24.94l0,0c9.59-0.89,18.57-4.32,26.15-9.71c7.58-5.39,13.76-12.76,17.73-21.52h0
				c7.31-16.11,21.28-26.53,36.82-30.1c15.54-3.57,32.66-0.29,46.27,11l0,0C410.14-3246.61,418.91-3242.68,428.08-3241.14z"/>
			<path class="st4" d="M491.37-3216.69c7.83,5.02,16.96,8.02,26.58,8.44l0,0c17.67,0.79,32.55,9.87,41.65,22.97
				c9.1,13.1,12.44,30.2,7.02,47.04l0,0c-2.95,9.16-3.33,18.77-1.35,27.86c1.98,9.09,6.33,17.66,12.82,24.77l0,0
				c11.94,13.05,16.03,29.99,13.21,45.69c-2.82,15.7-12.56,30.15-28.3,38.23l0,0c-8.57,4.4-15.62,10.92-20.65,18.75
				c-5.02,7.83-8.02,16.96-8.44,26.58l0,0c-0.79,17.67-9.87,32.55-22.97,41.65c-13.1,9.1-30.2,12.44-47.04,7.02l0,0
				c-9.17-2.95-18.77-3.33-27.86-1.35c-9.09,1.98-17.66,6.33-24.77,12.82l0,0c-13.05,11.94-29.99,16.03-45.69,13.21
				c-15.7-2.82-30.15-12.56-38.23-28.3l0,0c-4.4-8.57-10.92-15.62-18.75-20.65c-7.83-5.02-16.96-8.02-26.58-8.44l0,0
				c-17.67-0.79-32.55-9.87-41.65-22.97c-9.1-13.1-12.44-30.2-7.02-47.04l0,0c2.95-9.17,3.33-18.77,1.35-27.86
				c-1.98-9.09-6.33-17.66-12.82-24.77l0,0c-11.94-13.05-16.03-29.99-13.21-45.69c2.82-15.7,12.56-30.15,28.3-38.23l0,0
				c8.57-4.4,15.62-10.92,20.65-18.75c5.02-7.83,8.02-16.96,8.44-26.58l0,0c0.79-17.67,9.87-32.54,22.97-41.65
				s30.2-12.44,47.04-7.02l0,0c9.17,2.95,18.77,3.33,27.86,1.35c9.09-1.98,17.66-6.33,24.77-12.82l0,0
				c13.05-11.94,29.99-16.03,45.69-13.21c15.7,2.82,30.15,12.56,38.23,28.3l0,0C477.02-3228.77,483.55-3221.71,491.37-3216.69z"/>
		</g>
		<g>
			<path class="st4" d="M332.19-3229.3c8.52-3.73,16.08-9.67,21.77-17.44l0,0c10.45-14.27,26.26-21.61,42.21-21.93
				c15.95-0.31,32.03,6.4,43.04,20.24l0,0c5.99,7.54,13.77,13.18,22.44,16.57c8.66,3.39,18.21,4.53,27.72,3.06h0
				c17.48-2.7,33.85,3.29,45.35,14.34c11.5,11.05,18.12,27.17,16.12,44.75v0c-1.09,9.57,0.42,19.06,4.15,27.58
				c3.73,8.52,9.67,16.08,17.44,21.77l0,0c14.27,10.45,21.61,26.26,21.93,42.21c0.31,15.95-6.4,32.03-20.24,43.04l0,0
				c-7.54,5.99-13.18,13.77-16.57,22.44c-3.39,8.66-4.53,18.21-3.06,27.72v0c2.7,17.48-3.29,33.85-14.34,45.35
				c-11.05,11.5-27.17,18.12-44.75,16.12h0c-9.57-1.09-19.06,0.42-27.58,4.15c-8.52,3.73-16.08,9.67-21.77,17.44l0,0
				c-10.45,14.27-26.26,21.61-42.21,21.93c-15.95,0.31-32.03-6.4-43.04-20.24l0,0c-5.99-7.54-13.77-13.18-22.44-16.57
				c-8.66-3.39-18.21-4.53-27.72-3.06h0c-17.48,2.7-33.85-3.29-45.35-14.34c-11.5-11.05-18.12-27.17-16.12-44.75l0,0
				c1.09-9.57-0.42-19.06-4.15-27.58c-3.73-8.52-9.67-16.08-17.44-21.77l0,0c-14.27-10.45-21.61-26.26-21.93-42.21
				s6.4-32.03,20.24-43.04l0,0c7.54-5.99,13.18-13.77,16.57-22.44c3.39-8.66,4.53-18.21,3.06-27.72v0
				c-2.7-17.48,3.29-33.85,14.34-45.35c11.05-11.5,27.17-18.12,44.75-16.12h0C314.18-3224.06,323.67-3225.57,332.19-3229.3z"/>
		</g>
	</g>
</g>
<g>
	<g>
		<path class="st0" d="M20,497.99c-5.54,0-10.26-1.95-14.16-5.84S0,483.5,0,477.89c0-5.48,1.95-10.16,5.84-14.06
			c3.83-3.96,8.55-5.94,14.16-5.94h37.22v11.48H20c-1.19,0-2.31,0.21-3.37,0.64c-1.05,0.43-1.98,1.04-2.77,1.83
			c-0.79,0.79-1.4,1.72-1.83,2.77s-0.64,2.14-0.64,3.27c0,2.38,0.82,4.42,2.47,6.14c1.65,1.72,3.7,2.57,6.14,2.57h17.13
			c5.54,0,10.26,1.95,14.16,5.84c3.96,3.89,5.94,8.61,5.94,14.16c0,5.48-1.98,10.2-5.94,14.15c-3.9,3.89-8.61,5.84-14.16,5.84H0
			v-11.48h37.13c1.19,0,2.31-0.21,3.37-0.64c1.05-0.43,1.98-1.02,2.77-1.78c0.79-0.76,1.4-1.67,1.83-2.72
			c0.43-1.05,0.65-2.18,0.65-3.36c0-2.31-0.86-4.32-2.58-6.04c-1.65-1.71-3.66-2.57-6.04-2.57H20z"/>
		<path class="st0" d="M102.76,457.9h57.32v11.48h-22.87v57.22h-11.48v-57.22h-22.97V457.9z"/>
		<path class="st0" d="M190.45,517.2c0-6.44,4.63-10.94,10.42-10.94c5.79,0,10.43,4.5,10.43,10.94c0,6.57-4.63,10.94-10.43,10.94
			C195.08,528.14,190.45,523.77,190.45,517.2z"/>
		<path class="st0" d="M255.02,511.75c2.24,2.24,4.92,3.37,8.02,3.37c3.17,0,5.84-1.09,8.02-3.27c2.24-2.24,3.37-4.95,3.37-8.12
			V457.9H286v45.83c0,6.27-2.24,11.68-6.73,16.24c-4.62,4.42-10.03,6.63-16.24,6.63c-6.34,0-11.75-2.21-16.24-6.63L255.02,511.75z"
			/>
		<path class="st0" d="M377.28,457.9v11.48h-34.35v17.22h34.35v11.39h-34.35v17.13h34.35v11.48h-45.74v-68.7H377.28z"/>
		<path class="st0" d="M466.87,526.6l-13.27-22.87h-19.4v22.87h-11.39v-68.7h34.35c6.27,0,11.65,2.24,16.14,6.73
			c4.49,4.49,6.73,9.87,6.73,16.14c0,4.75-1.36,9.08-4.06,12.97c-2.64,3.83-6.01,6.57-10.1,8.22l14.16,24.65H466.87z M457.17,469.38
			H434.2v22.77l22.97,0.1c3.1,0,5.77-1.12,8.02-3.36c2.24-2.24,3.37-4.95,3.37-8.12c0-3.1-1.13-5.77-3.37-8.02
			C462.94,470.5,460.27,469.38,457.17,469.38z"/>
		<path class="st0" d="M559.93,457.9c9.5,0,17.59,3.36,24.26,10.1c6.8,6.73,10.2,14.82,10.2,24.25c0,9.57-3.4,17.66-10.2,24.26
			c-6.67,6.73-14.75,10.1-24.26,10.1s-17.59-3.37-24.26-10.1c-6.73-6.67-10.1-14.75-10.1-24.26c0-9.44,3.37-17.52,10.1-24.25
			C542.27,461.26,550.36,457.9,559.93,457.9z M559.93,469.38c-6.27,0-11.68,2.24-16.24,6.73c-4.42,4.49-6.63,9.87-6.63,16.14
			c0,6.27,2.21,11.68,6.63,16.24c4.55,4.42,9.97,6.63,16.24,6.63c6.27,0,11.65-2.21,16.14-6.63c4.49-4.55,6.73-9.97,6.73-16.24
			c0-6.27-2.24-11.65-6.73-16.14C571.58,471.62,566.2,469.38,559.93,469.38z"/>
		<path class="st0" d="M651.3,485.52v41.08h-11.39v-68.7l34.35,34.35l34.45-34.35v68.7h-11.58v-41.08l-22.87,22.97L651.3,485.52z"/>
		<path class="st0" d="M800,457.9v11.48h-34.35v17.22H800v11.39h-34.35v17.13H800v11.48h-45.74v-68.7H800z"/>
	</g>
	<g>
		<polygon class="st0" points="356.97,131.73 443.03,131.73 443.03,94.93 420.31,111.22 400,73.01 379.89,110.51 356.97,95.93 		"/>
		<g>
			<path class="st0" d="M329.74,147.31c21.97,0,43.36,0,65.08,0c0,22.96,0,45.86,0,69.56c-2.11-2.01-3.93-3.69-5.69-5.43
				c-4.35-4.31-8.59-8.75-13.05-12.94c-1.98-1.86-2.76-3.79-2.7-6.5c0.17-7.53,0.06-15.07,0.06-22.87c-7.43,0-14.41,0-22.2,0
				c0,4.07-0.37,8.11,0.17,12.02c0.24,1.76,2.16,3.43,3.59,4.86c12.38,12.35,24.79,24.67,37.29,36.89c2.02,1.97,2.93,3.91,2.92,6.8
				c-0.11,28.09-0.07,86.8-0.07,88.94c-1.27-1.34-43.18-55.21-63.45-81.47c-0.84-1.09-1.83-2.47-1.85-3.73
				c-0.15-10.91-0.08-21.82-0.08-33.69c4.12,4.02,7.61,7.42,11.08,10.83c2.33,2.29,4.54,4.71,6.97,6.89
				c2.45,2.19,4.28,4.48,3.66,8.05c-0.14,0.8,0.17,1.9,0.67,2.55c6.72,8.8,13.51,17.54,21.21,26.1c0-6.29,0.11-12.58-0.11-18.86
				c-0.04-1.03-1.45-2.08-2.35-2.99c-9.4-9.44-18.83-18.86-28.26-28.28c-3.04-3.04-5.95-6.21-9.15-9.06
				c-2.72-2.43-3.92-5.04-3.82-8.83c0.28-11.36,0.1-22.73,0.1-34.1C329.74,150.62,329.74,149.2,329.74,147.31z"/>
			<path class="st0" d="M405.28,318.7c0-30.98,0-61.6,0-92.06c7.12,0,13.97,0,21.25,0c0,9.2-0.06,29.38-0.06,29.38
				s14.67-18.89,20.5-26.59c0.88-1.16,1.65-2.77,1.66-4.18c0.1-18.15,0.09-55.43-0.07-56.26c-14.28,0-28.71,0-43.23,0
				c0-7.34,0-14.31,0-21.56c21.55,0,43.01,0,65.02,0c0,1.47,0,2.87,0,4.26c0,16.44,0,32.88,0,49.32c0,10.17,0.07,20.34-0.06,30.51
				c-0.02,1.7-0.47,3.73-1.46,5.03C448.23,263.36,406.1,317.93,405.28,318.7z"/>
		</g>
	</g>
	<g>
		<g>
			<path class="st4" d="M428.08,29.04c9.17,1.54,18.75,0.7,27.76-2.68l0,0c16.56-6.22,33.81-3.71,47.32,4.75
				c13.52,8.46,23.3,22.89,24.94,40.5l0,0c0.89,9.59,4.32,18.57,9.71,26.15c5.39,7.58,12.76,13.76,21.52,17.73l0,0
				c16.11,7.31,26.53,21.28,30.1,36.82c3.57,15.54,0.29,32.66-11,46.27l0,0c-6.15,7.41-10.08,16.18-11.62,25.35
				c-1.54,9.17-0.7,18.75,2.68,27.76l0,0c6.22,16.56,3.71,33.81-4.75,47.32s-22.89,23.3-40.5,24.94l0,0
				c-9.59,0.89-18.57,4.32-26.15,9.71c-7.58,5.39-13.76,12.76-17.73,21.52l0,0c-7.31,16.11-21.28,26.53-36.82,30.1
				c-15.54,3.57-32.66,0.29-46.27-11l0,0c-7.41-6.15-16.18-10.08-25.35-11.62c-9.17-1.54-18.75-0.7-27.76,2.68l0,0
				c-16.56,6.22-33.81,3.71-47.32-4.75s-23.3-22.89-24.94-40.5l0,0c-0.89-9.59-4.32-18.57-9.71-26.15
				c-5.39-7.58-12.76-13.76-21.52-17.73l0,0c-16.11-7.31-26.53-21.28-30.1-36.82c-3.57-15.54-0.29-32.66,11-46.27l0,0
				c6.15-7.41,10.08-16.18,11.62-25.35c1.54-9.17,0.7-18.75-2.68-27.76l0,0c-6.22-16.56-3.71-33.81,4.75-47.32
				c8.46-13.52,22.89-23.3,40.5-24.94l0,0c9.59-0.89,18.57-4.32,26.15-9.71c7.58-5.39,13.76-12.76,17.73-21.52l0,0
				c7.31-16.11,21.28-26.53,36.82-30.1c15.54-3.57,32.66-0.29,46.27,11l0,0C410.14,23.56,418.91,27.49,428.08,29.04z"/>
			<path class="st4" d="M491.37,53.49c7.83,5.02,16.96,8.02,26.58,8.44l0,0c17.67,0.79,32.55,9.87,41.65,22.97
				c9.1,13.1,12.44,30.2,7.02,47.04l0,0c-2.95,9.17-3.33,18.77-1.35,27.86c1.98,9.09,6.33,17.66,12.82,24.77l0,0
				c11.94,13.05,16.03,29.99,13.21,45.69c-2.82,15.7-12.56,30.15-28.3,38.23l0,0c-8.57,4.4-15.62,10.92-20.65,18.75
				c-5.02,7.83-8.02,16.96-8.44,26.58l0,0c-0.79,17.67-9.87,32.55-22.97,41.65c-13.1,9.1-30.2,12.44-47.04,7.02l0,0
				c-9.17-2.95-18.77-3.33-27.86-1.35c-9.09,1.98-17.66,6.33-24.77,12.82l0,0c-13.05,11.94-29.99,16.03-45.69,13.21
				c-15.7-2.82-30.15-12.56-38.23-28.3l0,0c-4.4-8.57-10.92-15.62-18.75-20.65c-7.83-5.02-16.96-8.02-26.58-8.44l0,0
				c-17.67-0.79-32.55-9.87-41.65-22.97c-9.1-13.1-12.44-30.2-7.02-47.04l0,0c2.95-9.17,3.33-18.77,1.35-27.86
				c-1.98-9.09-6.33-17.66-12.82-24.77l0,0c-11.94-13.05-16.03-29.99-13.21-45.69c2.82-15.7,12.56-30.15,28.3-38.23l0,0
				c8.57-4.4,15.62-10.92,20.65-18.75c5.02-7.83,8.02-16.96,8.44-26.58l0,0c0.79-17.67,9.87-32.55,22.97-41.65
				s30.2-12.44,47.04-7.02l0,0c9.17,2.95,18.77,3.33,27.86,1.35c9.09-1.98,17.66-6.33,24.77-12.82l0,0
				C401.76,5.81,418.71,1.72,434.4,4.54c15.7,2.82,30.15,12.56,38.23,28.3l0,0C477.02,41.41,483.55,48.47,491.37,53.49z"/>
		</g>
		<g>
			<path class="st4" d="M332.19,40.87c8.52-3.73,16.08-9.67,21.77-17.44l0,0c10.45-14.27,26.26-21.61,42.21-21.93
				c15.95-0.31,32.03,6.4,43.04,20.24l0,0c5.99,7.54,13.77,13.18,22.44,16.57c8.66,3.39,18.21,4.53,27.72,3.06l0,0
				c17.48-2.7,33.85,3.29,45.35,14.34c11.5,11.05,18.12,27.17,16.12,44.75v0c-1.09,9.57,0.42,19.06,4.15,27.58
				c3.73,8.52,9.67,16.08,17.44,21.77l0,0c14.27,10.45,21.61,26.26,21.93,42.21c0.31,15.95-6.4,32.03-20.24,43.04l0,0
				c-7.54,5.99-13.18,13.77-16.57,22.44c-3.39,8.66-4.53,18.21-3.06,27.72v0c2.7,17.48-3.29,33.85-14.34,45.35
				c-11.05,11.5-27.17,18.12-44.75,16.12h0c-9.57-1.09-19.06,0.42-27.58,4.15c-8.52,3.73-16.08,9.67-21.77,17.44l0,0
				c-10.45,14.27-26.26,21.61-42.21,21.93c-15.95,0.31-32.03-6.4-43.04-20.24l0,0c-5.99-7.54-13.77-13.18-22.44-16.57
				c-8.66-3.39-18.21-4.53-27.72-3.06h0c-17.48,2.7-33.85-3.29-45.35-14.34c-11.5-11.05-18.12-27.17-16.12-44.75l0,0
				c1.09-9.57-0.42-19.06-4.15-27.58c-3.73-8.52-9.67-16.08-17.44-21.77l0,0c-14.27-10.45-21.61-26.26-21.93-42.21
				s6.4-32.03,20.24-43.04l0,0c7.54-5.99,13.18-13.77,16.57-22.44c3.39-8.66,4.53-18.21,3.06-27.72v0
				c-2.7-17.48,3.29-33.85,14.34-45.35c11.05-11.5,27.17-18.12,44.75-16.12l0,0C314.18,46.12,323.67,44.6,332.19,40.87z"/>
		</g>
	</g>
</g>
<g>
	<g>
		<path class="st1" d="M2039.03-2772.19c-5.54,0-10.26-1.95-14.16-5.84s-5.84-8.64-5.84-14.26c0-5.48,1.95-10.16,5.84-14.06
			c3.83-3.96,8.55-5.94,14.16-5.94h37.22v11.48h-37.22c-1.19,0-2.31,0.21-3.37,0.64c-1.05,0.43-1.98,1.04-2.77,1.83
			s-1.4,1.72-1.83,2.77s-0.64,2.14-0.64,3.27c0,2.38,0.82,4.42,2.47,6.14c1.65,1.72,3.7,2.57,6.14,2.57h17.13
			c5.54,0,10.26,1.95,14.16,5.84c3.96,3.89,5.94,8.61,5.94,14.16c0,5.48-1.98,10.2-5.94,14.15c-3.9,3.89-8.61,5.84-14.16,5.84
			h-37.13v-11.48h37.13c1.19,0,2.31-0.21,3.37-0.64c1.05-0.43,1.98-1.02,2.77-1.78c0.79-0.76,1.4-1.67,1.83-2.72
			c0.43-1.05,0.65-2.18,0.65-3.36c0-2.31-0.86-4.32-2.58-6.04c-1.65-1.71-3.66-2.57-6.04-2.57H2039.03z"/>
		<path class="st1" d="M2121.79-2812.28h57.32v11.48h-22.87v57.22h-11.48v-57.22h-22.97V-2812.28z"/>
		<path class="st1" d="M2209.48-2752.97c0-6.44,4.63-10.94,10.42-10.94c5.79,0,10.43,4.5,10.43,10.94c0,6.57-4.63,10.94-10.43,10.94
			C2214.11-2742.03,2209.48-2746.41,2209.48-2752.97z"/>
		<path class="st1" d="M2274.05-2758.43c2.24,2.24,4.92,3.37,8.02,3.37c3.17,0,5.84-1.09,8.02-3.27c2.24-2.24,3.37-4.95,3.37-8.12
			v-45.83h11.58v45.83c0,6.27-2.24,11.68-6.73,16.24c-4.62,4.42-10.03,6.63-16.24,6.63c-6.34,0-11.75-2.21-16.24-6.63
			L2274.05-2758.43z"/>
		<path class="st1" d="M2396.31-2812.28v11.48h-34.35v17.22h34.35v11.39h-34.35v17.13h34.35v11.48h-45.74v-68.7H2396.31z"/>
		<path class="st1" d="M2485.9-2743.58l-13.27-22.87h-19.4v22.87h-11.39v-68.7h34.35c6.27,0,11.65,2.24,16.14,6.73
			c4.49,4.49,6.73,9.87,6.73,16.14c0,4.75-1.36,9.08-4.06,12.97c-2.64,3.83-6.01,6.57-10.1,8.22l14.16,24.65H2485.9z M2476.2-2800.8
			h-22.97v22.77l22.97,0.1c3.1,0,5.77-1.12,8.02-3.36c2.24-2.24,3.37-4.95,3.37-8.12c0-3.1-1.12-5.77-3.37-8.02
			C2481.97-2799.67,2479.3-2800.8,2476.2-2800.8z"/>
		<path class="st1" d="M2578.96-2812.28c9.5,0,17.59,3.36,24.26,10.1c6.8,6.73,10.2,14.82,10.2,24.25c0,9.57-3.4,17.66-10.2,24.26
			c-6.67,6.73-14.75,10.1-24.26,10.1c-9.5,0-17.59-3.37-24.26-10.1c-6.73-6.67-10.1-14.75-10.1-24.26c0-9.44,3.37-17.52,10.1-24.25
			C2561.3-2808.92,2569.39-2812.28,2578.96-2812.28z M2578.96-2800.8c-6.27,0-11.68,2.24-16.24,6.73
			c-4.42,4.49-6.63,9.87-6.63,16.14c0,6.27,2.21,11.68,6.63,16.24c4.55,4.42,9.97,6.63,16.24,6.63c6.27,0,11.65-2.21,16.14-6.63
			c4.49-4.55,6.73-9.97,6.73-16.24c0-6.27-2.24-11.65-6.73-16.14C2590.61-2798.55,2585.23-2800.8,2578.96-2800.8z"/>
		<path class="st1" d="M2670.34-2784.66v41.08h-11.39v-68.7l34.35,34.35l34.45-34.35v68.7h-11.58v-41.08l-22.87,22.97
			L2670.34-2784.66z"/>
		<path class="st1" d="M2819.03-2812.28v11.48h-34.35v17.22h34.35v11.39h-34.35v17.13h34.35v11.48h-45.74v-68.7H2819.03z"/>
	</g>
	<g>
		<polygon class="st2" points="2376,-3138.45 2462.07,-3138.45 2462.07,-3175.25 2439.34,-3158.96 2419.03,-3197.17 
			2398.92,-3159.66 2376,-3174.24 		"/>
		<g>
			<path class="st2" d="M2348.77-3122.87c21.97,0,43.36,0,65.08,0c0,22.96,0,45.86,0,69.56c-2.11-2.01-3.93-3.69-5.69-5.43
				c-4.35-4.31-8.59-8.75-13.05-12.94c-1.98-1.86-2.76-3.79-2.7-6.5c0.17-7.53,0.06-15.07,0.06-22.87c-7.43,0-14.41,0-22.2,0
				c0,4.07-0.37,8.11,0.17,12.02c0.24,1.76,2.16,3.43,3.59,4.86c12.38,12.35,24.79,24.67,37.29,36.89c2.02,1.97,2.93,3.91,2.92,6.8
				c-0.11,28.09-0.07,86.8-0.07,88.94c-1.27-1.34-43.18-55.21-63.45-81.47c-0.84-1.09-1.83-2.47-1.85-3.73
				c-0.15-10.91-0.08-21.82-0.08-33.69c4.12,4.02,7.61,7.42,11.08,10.83c2.33,2.29,4.54,4.71,6.97,6.89
				c2.45,2.19,4.28,4.48,3.66,8.05c-0.14,0.8,0.17,1.9,0.67,2.55c6.72,8.8,13.51,17.54,21.21,26.1c0-6.29,0.11-12.58-0.11-18.86
				c-0.04-1.03-1.45-2.08-2.35-2.99c-9.4-9.44-18.83-18.86-28.26-28.28c-3.04-3.04-5.95-6.21-9.15-9.06
				c-2.72-2.43-3.92-5.04-3.82-8.83c0.28-11.36,0.1-22.73,0.1-34.1C2348.77-3119.55,2348.77-3120.97,2348.77-3122.87z"/>
			<path class="st2" d="M2424.31-2951.48c0-30.98,0-61.6,0-92.06c7.12,0,13.97,0,21.25,0c0,9.2-0.06,29.38-0.06,29.38
				s14.67-18.89,20.5-26.59c0.88-1.16,1.65-2.77,1.66-4.18c0.1-18.15,0.09-55.43-0.07-56.26c-14.28,0-28.71,0-43.23,0
				c0-7.34,0-14.31,0-21.56c21.55,0,43.01,0,65.02,0c0,1.47,0,2.87,0,4.26c0,16.44,0,32.88,0,49.32c0,10.17,0.07,20.34-0.06,30.51
				c-0.02,1.7-0.47,3.73-1.46,5.03C2467.26-3006.82,2425.13-2952.25,2424.31-2951.48z"/>
		</g>
	</g>
	<g>
		<g>
			<path class="st3" d="M2447.12-3241.14c9.17,1.54,18.75,0.7,27.76-2.68l0,0c16.56-6.22,33.81-3.71,47.32,4.75
				c13.52,8.46,23.3,22.89,24.94,40.5l0,0c0.89,9.59,4.32,18.57,9.71,26.15c5.39,7.58,12.76,13.76,21.52,17.73l0,0
				c16.11,7.31,26.53,21.28,30.1,36.82c3.57,15.54,0.29,32.66-11,46.27v0c-6.15,7.41-10.08,16.18-11.62,25.35
				c-1.54,9.17-0.71,18.75,2.68,27.76l0,0c6.22,16.56,3.71,33.81-4.75,47.32c-8.46,13.52-22.89,23.3-40.5,24.94l0,0
				c-9.59,0.89-18.57,4.32-26.15,9.71c-7.58,5.39-13.76,12.76-17.73,21.52v0c-7.31,16.11-21.28,26.53-36.82,30.1
				c-15.54,3.57-32.66,0.29-46.27-11l0,0c-7.41-6.15-16.18-10.08-25.35-11.62c-9.17-1.54-18.75-0.7-27.76,2.68l0,0
				c-16.56,6.22-33.81,3.71-47.32-4.75c-13.52-8.46-23.3-22.89-24.94-40.5l0,0c-0.89-9.59-4.32-18.57-9.71-26.15
				c-5.39-7.58-12.76-13.76-21.52-17.73l0,0c-16.11-7.31-26.53-21.28-30.1-36.82c-3.57-15.54-0.29-32.66,11-46.27l0,0
				c6.15-7.41,10.08-16.18,11.62-25.35c1.54-9.17,0.71-18.75-2.68-27.76l0,0c-6.22-16.56-3.71-33.81,4.75-47.32
				s22.89-23.3,40.5-24.94l0,0c9.59-0.89,18.57-4.32,26.15-9.71c7.58-5.39,13.76-12.76,17.73-21.52l0,0
				c7.31-16.11,21.28-26.53,36.82-30.1c15.54-3.57,32.66-0.29,46.27,11l0,0C2429.17-3246.61,2437.94-3242.68,2447.12-3241.14z"/>
			<path class="st3" d="M2510.41-3216.69c7.83,5.02,16.96,8.02,26.58,8.44l0,0c17.67,0.79,32.55,9.87,41.65,22.97
				c9.1,13.1,12.44,30.2,7.02,47.04l0,0c-2.95,9.16-3.33,18.77-1.35,27.86c1.98,9.09,6.33,17.66,12.82,24.77l0,0
				c11.94,13.05,16.03,29.99,13.21,45.69c-2.82,15.7-12.56,30.15-28.3,38.23l0,0c-8.57,4.4-15.62,10.92-20.65,18.75
				s-8.02,16.96-8.44,26.58l0,0c-0.79,17.67-9.87,32.55-22.97,41.65c-13.1,9.1-30.2,12.44-47.04,7.02l0,0
				c-9.17-2.95-18.77-3.33-27.86-1.35c-9.09,1.98-17.66,6.33-24.77,12.82l0,0c-13.05,11.94-29.99,16.03-45.69,13.21
				c-15.7-2.82-30.15-12.56-38.23-28.3l0,0c-4.4-8.57-10.92-15.62-18.75-20.65c-7.83-5.02-16.96-8.02-26.58-8.44l0,0
				c-17.67-0.79-32.55-9.87-41.65-22.97c-9.1-13.1-12.44-30.2-7.02-47.04l0,0c2.95-9.17,3.33-18.77,1.35-27.86
				c-1.98-9.09-6.33-17.66-12.82-24.77l0,0c-11.94-13.05-16.03-29.99-13.21-45.69c2.82-15.7,12.56-30.15,28.3-38.23l0,0
				c8.57-4.4,15.62-10.92,20.65-18.75s8.02-16.96,8.44-26.58l0,0c0.79-17.67,9.87-32.54,22.97-41.65c13.1-9.1,30.2-12.44,47.04-7.02
				l0,0c9.17,2.95,18.77,3.33,27.86,1.35c9.09-1.98,17.66-6.33,24.77-12.82l0,0c13.05-11.94,29.99-16.03,45.69-13.21
				c15.7,2.82,30.15,12.56,38.23,28.3l0,0C2496.06-3228.77,2502.58-3221.71,2510.41-3216.69z"/>
		</g>
		<g>
			<path class="st3" d="M2351.22-3229.3c8.52-3.73,16.08-9.67,21.77-17.44l0,0c10.45-14.27,26.26-21.61,42.21-21.93
				c15.95-0.31,32.03,6.4,43.04,20.24l0,0c5.99,7.54,13.77,13.18,22.44,16.57c8.66,3.39,18.21,4.53,27.72,3.06h0
				c17.48-2.7,33.85,3.29,45.35,14.34c11.5,11.05,18.12,27.17,16.12,44.75v0c-1.09,9.57,0.42,19.06,4.15,27.58
				c3.73,8.52,9.67,16.08,17.44,21.77l0,0c14.27,10.45,21.61,26.26,21.93,42.21s-6.4,32.03-20.24,43.04l0,0
				c-7.54,5.99-13.18,13.77-16.57,22.44c-3.39,8.66-4.53,18.21-3.06,27.72v0c2.7,17.48-3.29,33.85-14.34,45.35
				c-11.05,11.5-27.17,18.12-44.75,16.12h0c-9.57-1.09-19.06,0.42-27.58,4.15s-16.08,9.67-21.77,17.44l0,0
				c-10.45,14.27-26.26,21.61-42.21,21.93c-15.95,0.31-32.03-6.4-43.04-20.24l0,0c-5.99-7.54-13.77-13.18-22.44-16.57
				c-8.66-3.39-18.21-4.53-27.72-3.06h0c-17.48,2.7-33.85-3.29-45.35-14.34c-11.5-11.05-18.12-27.17-16.12-44.75v0
				c1.09-9.57-0.42-19.06-4.15-27.58c-3.73-8.52-9.67-16.08-17.44-21.77l0,0c-14.27-10.45-21.61-26.26-21.93-42.21
				s6.4-32.03,20.24-43.04l0,0c7.54-5.99,13.18-13.77,16.57-22.44c3.39-8.66,4.53-18.21,3.06-27.72v0
				c-2.7-17.48,3.29-33.85,14.34-45.35c11.05-11.5,27.17-18.12,44.75-16.12h0C2333.21-3224.06,2342.7-3225.57,2351.22-3229.3z"/>
		</g>
	</g>
</g>
<g>
	<g>
		<path class="st0" d="M4076.25-2772.19c-5.54,0-10.26-1.95-14.16-5.84c-3.89-3.89-5.84-8.64-5.84-14.26
			c0-5.48,1.95-10.16,5.84-14.06c3.83-3.96,8.55-5.94,14.16-5.94h37.22v11.48h-37.22c-1.19,0-2.31,0.21-3.37,0.64
			c-1.05,0.43-1.98,1.04-2.77,1.83s-1.4,1.72-1.83,2.77c-0.43,1.05-0.64,2.14-0.64,3.27c0,2.38,0.82,4.42,2.47,6.14
			c1.65,1.72,3.7,2.57,6.14,2.57h17.13c5.54,0,10.26,1.95,14.16,5.84c3.96,3.89,5.94,8.61,5.94,14.16c0,5.48-1.98,10.2-5.94,14.15
			c-3.9,3.89-8.61,5.84-14.16,5.84h-37.13v-11.48h37.13c1.19,0,2.31-0.21,3.37-0.64c1.06-0.43,1.98-1.02,2.77-1.78
			c0.79-0.76,1.4-1.67,1.83-2.72c0.43-1.05,0.65-2.18,0.65-3.36c0-2.31-0.86-4.32-2.58-6.04c-1.65-1.71-3.66-2.57-6.04-2.57H4076.25
			z"/>
		<path class="st0" d="M4159.01-2812.28h57.32v11.48h-22.87v57.22h-11.48v-57.22h-22.97V-2812.28z"/>
		<path class="st0" d="M4246.7-2752.97c0-6.44,4.63-10.94,10.42-10.94c5.79,0,10.43,4.5,10.43,10.94c0,6.57-4.63,10.94-10.43,10.94
			C4251.33-2742.03,4246.7-2746.41,4246.7-2752.97z"/>
		<path class="st0" d="M4311.27-2758.43c2.24,2.24,4.92,3.37,8.02,3.37c3.17,0,5.84-1.09,8.02-3.27c2.24-2.24,3.37-4.95,3.37-8.12
			v-45.83h11.58v45.83c0,6.27-2.24,11.68-6.73,16.24c-4.62,4.42-10.03,6.63-16.24,6.63c-6.34,0-11.75-2.21-16.24-6.63
			L4311.27-2758.43z"/>
		<path class="st0" d="M4433.53-2812.28v11.48h-34.35v17.22h34.35v11.39h-34.35v17.13h34.35v11.48h-45.74v-68.7H4433.53z"/>
		<path class="st0" d="M4523.12-2743.58l-13.27-22.87h-19.4v22.87h-11.39v-68.7h34.35c6.27,0,11.65,2.24,16.14,6.73
			c4.49,4.49,6.73,9.87,6.73,16.14c0,4.75-1.36,9.08-4.06,12.97c-2.64,3.83-6.01,6.57-10.1,8.22l14.16,24.65H4523.12z
			 M4513.42-2800.8h-22.97v22.77l22.97,0.1c3.1,0,5.77-1.12,8.02-3.36c2.24-2.24,3.37-4.95,3.37-8.12c0-3.1-1.12-5.77-3.37-8.02
			C4519.2-2799.67,4516.52-2800.8,4513.42-2800.8z"/>
		<path class="st0" d="M4616.18-2812.28c9.5,0,17.59,3.36,24.26,10.1c6.8,6.73,10.2,14.82,10.2,24.25c0,9.57-3.4,17.66-10.2,24.26
			c-6.67,6.73-14.75,10.1-24.26,10.1s-17.59-3.37-24.26-10.1c-6.73-6.67-10.1-14.75-10.1-24.26c0-9.44,3.37-17.52,10.1-24.25
			C4598.52-2808.92,4606.61-2812.28,4616.18-2812.28z M4616.18-2800.8c-6.27,0-11.68,2.24-16.24,6.73
			c-4.42,4.49-6.63,9.87-6.63,16.14c0,6.27,2.21,11.68,6.63,16.24c4.55,4.42,9.97,6.63,16.24,6.63c6.27,0,11.65-2.21,16.14-6.63
			c4.49-4.55,6.73-9.97,6.73-16.24c0-6.27-2.24-11.65-6.73-16.14C4627.83-2798.55,4622.45-2800.8,4616.18-2800.8z"/>
		<path class="st0" d="M4707.56-2784.66v41.08h-11.39v-68.7l34.35,34.35l34.45-34.35v68.7h-11.58v-41.08l-22.87,22.97
			L4707.56-2784.66z"/>
		<path class="st0" d="M4856.25-2812.28v11.48h-34.35v17.22h34.35v11.39h-34.35v17.13h34.35v11.48h-45.74v-68.7H4856.25z"/>
	</g>
	<g>
		<polygon class="st0" points="4413.22,-3138.45 4499.29,-3138.45 4499.29,-3175.25 4476.56,-3158.96 4456.25,-3197.17 
			4436.14,-3159.66 4413.22,-3174.24 		"/>
		<g>
			<path class="st0" d="M4385.99-3122.87c21.97,0,43.36,0,65.08,0c0,22.96,0,45.86,0,69.56c-2.11-2.01-3.93-3.69-5.69-5.43
				c-4.35-4.31-8.59-8.75-13.05-12.94c-1.98-1.86-2.76-3.79-2.7-6.5c0.17-7.53,0.06-15.07,0.06-22.87c-7.43,0-14.41,0-22.2,0
				c0,4.07-0.37,8.11,0.17,12.02c0.24,1.76,2.16,3.43,3.59,4.86c12.38,12.35,24.79,24.67,37.29,36.89c2.02,1.97,2.93,3.91,2.92,6.8
				c-0.11,28.09-0.07,86.8-0.07,88.94c-1.27-1.34-43.19-55.21-63.45-81.47c-0.84-1.09-1.83-2.47-1.85-3.73
				c-0.15-10.91-0.08-21.82-0.08-33.69c4.12,4.02,7.61,7.42,11.08,10.83c2.33,2.29,4.54,4.71,6.97,6.89
				c2.45,2.19,4.28,4.48,3.66,8.05c-0.14,0.8,0.17,1.9,0.67,2.55c6.72,8.8,13.51,17.54,21.21,26.1c0-6.29,0.11-12.58-0.11-18.86
				c-0.04-1.03-1.45-2.08-2.35-2.99c-9.4-9.44-18.83-18.86-28.26-28.28c-3.04-3.04-5.95-6.21-9.15-9.06
				c-2.72-2.43-3.92-5.04-3.82-8.83c0.28-11.36,0.1-22.73,0.1-34.1C4385.99-3119.55,4385.99-3120.97,4385.99-3122.87z"/>
			<path class="st0" d="M4461.53-2951.48c0-30.98,0-61.6,0-92.06c7.12,0,13.97,0,21.25,0c0,9.2-0.06,29.38-0.06,29.38
				s14.67-18.89,20.5-26.59c0.88-1.16,1.65-2.77,1.66-4.18c0.1-18.15,0.09-55.43-0.07-56.26c-14.28,0-28.71,0-43.23,0
				c0-7.34,0-14.31,0-21.56c21.55,0,43.01,0,65.02,0c0,1.47,0,2.87,0,4.26c0,16.44,0,32.88,0,49.32c0,10.17,0.07,20.34-0.06,30.51
				c-0.02,1.7-0.46,3.73-1.46,5.03C4504.48-3006.82,4462.35-2952.25,4461.53-2951.48z"/>
		</g>
	</g>
	<g>
		<g>
			<path class="st4" d="M4484.34-3241.14c9.17,1.54,18.75,0.7,27.76-2.68l0,0c16.56-6.22,33.81-3.71,47.32,4.75
				c13.52,8.46,23.3,22.89,24.94,40.5l0,0c0.89,9.59,4.32,18.57,9.71,26.15c5.39,7.58,12.76,13.76,21.52,17.73l0,0
				c16.11,7.31,26.53,21.28,30.1,36.82c3.57,15.54,0.29,32.66-11,46.27v0c-6.15,7.41-10.08,16.18-11.62,25.35
				s-0.71,18.75,2.68,27.76l0,0c6.22,16.56,3.71,33.81-4.75,47.32c-8.46,13.52-22.89,23.3-40.5,24.94l0,0
				c-9.59,0.89-18.57,4.32-26.15,9.71c-7.58,5.39-13.76,12.76-17.73,21.52v0c-7.31,16.11-21.28,26.53-36.82,30.1
				c-15.54,3.57-32.66,0.29-46.27-11v0c-7.41-6.15-16.18-10.08-25.35-11.62c-9.17-1.54-18.75-0.7-27.76,2.68l0,0
				c-16.56,6.22-33.81,3.71-47.32-4.75c-13.52-8.46-23.3-22.89-24.94-40.5l0,0c-0.89-9.59-4.31-18.57-9.71-26.15
				c-5.39-7.58-12.76-13.76-21.52-17.73v0c-16.11-7.31-26.53-21.28-30.1-36.82c-3.57-15.54-0.29-32.66,11-46.27v0
				c6.15-7.41,10.08-16.18,11.62-25.35c1.54-9.17,0.7-18.75-2.68-27.76l0,0c-6.22-16.56-3.71-33.81,4.75-47.32
				s22.89-23.3,40.5-24.94l0,0c9.59-0.89,18.57-4.32,26.15-9.71c7.58-5.39,13.75-12.76,17.73-21.52h0
				c7.31-16.11,21.28-26.53,36.82-30.1c15.54-3.57,32.66-0.29,46.27,11l0,0C4466.39-3246.61,4475.16-3242.68,4484.34-3241.14z"/>
			<path class="st4" d="M4547.63-3216.69c7.83,5.02,16.96,8.02,26.58,8.44l0,0c17.67,0.79,32.55,9.87,41.65,22.97
				c9.1,13.1,12.44,30.2,7.02,47.04l0,0c-2.95,9.16-3.33,18.77-1.35,27.86c1.98,9.09,6.33,17.66,12.82,24.77l0,0
				c11.94,13.05,16.03,29.99,13.21,45.69c-2.82,15.7-12.56,30.15-28.3,38.23v0c-8.57,4.4-15.62,10.92-20.65,18.75
				c-5.02,7.83-8.02,16.96-8.44,26.58l0,0c-0.79,17.67-9.87,32.55-22.97,41.65c-13.1,9.1-30.2,12.44-47.04,7.02l0,0
				c-9.17-2.95-18.77-3.33-27.86-1.35c-9.09,1.98-17.66,6.33-24.77,12.82v0c-13.05,11.94-29.99,16.03-45.69,13.21
				c-15.7-2.82-30.15-12.56-38.23-28.3v0c-4.4-8.57-10.92-15.62-18.75-20.65c-7.83-5.02-16.96-8.02-26.58-8.44l0,0
				c-17.67-0.79-32.54-9.87-41.65-22.97c-9.1-13.1-12.44-30.2-7.02-47.04l0,0c2.95-9.17,3.33-18.77,1.35-27.86
				c-1.98-9.09-6.33-17.66-12.82-24.77v0c-11.94-13.05-16.03-29.99-13.21-45.69c2.82-15.7,12.56-30.15,28.3-38.23l0,0
				c8.57-4.4,15.62-10.92,20.65-18.75c5.02-7.83,8.02-16.96,8.44-26.58l0,0c0.79-17.67,9.87-32.54,22.97-41.65
				s30.2-12.44,47.04-7.02l0,0c9.17,2.95,18.77,3.33,27.86,1.35c9.09-1.98,17.66-6.33,24.77-12.82l0,0
				c13.05-11.94,29.99-16.03,45.69-13.21c15.7,2.82,30.15,12.56,38.23,28.3l0,0C4533.28-3228.77,4539.8-3221.71,4547.63-3216.69z"/>
		</g>
		<g>
			<path class="st4" d="M4388.44-3229.3c8.52-3.73,16.08-9.67,21.77-17.44l0,0c10.45-14.27,26.26-21.61,42.21-21.93
				c15.95-0.31,32.03,6.4,43.04,20.24l0,0c5.99,7.54,13.77,13.18,22.44,16.57c8.66,3.39,18.21,4.53,27.72,3.06l0,0
				c17.48-2.7,33.85,3.29,45.35,14.34c11.5,11.05,18.12,27.17,16.12,44.75v0c-1.09,9.57,0.42,19.06,4.15,27.58
				c3.73,8.52,9.67,16.08,17.44,21.77l0,0c14.27,10.45,21.61,26.26,21.93,42.21c0.31,15.95-6.4,32.03-20.24,43.04l0,0
				c-7.54,5.99-13.18,13.77-16.57,22.44s-4.53,18.21-3.06,27.72v0c2.7,17.48-3.29,33.85-14.34,45.35s-27.17,18.12-44.75,16.12l0,0
				c-9.57-1.09-19.06,0.42-27.58,4.15c-8.52,3.73-16.08,9.67-21.77,17.44l0,0c-10.45,14.27-26.26,21.61-42.21,21.93
				c-15.95,0.31-32.03-6.4-43.04-20.24l0,0c-5.99-7.54-13.77-13.18-22.44-16.57c-8.66-3.39-18.21-4.53-27.72-3.06h0
				c-17.48,2.7-33.85-3.29-45.35-14.34c-11.5-11.05-18.12-27.17-16.12-44.75v0c1.09-9.57-0.42-19.06-4.15-27.58
				c-3.73-8.52-9.67-16.08-17.44-21.77l0,0c-14.27-10.45-21.61-26.26-21.93-42.21c-0.31-15.95,6.4-32.03,20.24-43.04l0,0
				c7.54-5.99,13.18-13.77,16.57-22.44c3.39-8.66,4.53-18.21,3.06-27.72v0c-2.7-17.48,3.29-33.85,14.34-45.35
				c11.05-11.5,27.17-18.12,44.75-16.12h0C4370.43-3224.06,4379.92-3225.57,4388.44-3229.3z"/>
		</g>
	</g>
</g>
</svg>
