<svg id="Layer_1" data-name="Layer 1" xmlns="http://www.w3.org/2000/svg" xmlns:xlink="http://www.w3.org/1999/xlink" viewBox="0 0 150 150"><defs><style>.cls-1{fill:#fff;}.cls-10,.cls-11,.cls-12,.cls-13,.cls-14,.cls-15,.cls-2,.cls-4,.cls-5,.cls-6,.cls-7,.cls-8,.cls-9{fill-rule:evenodd;}.cls-2{fill:url(#linear-gradient);}.cls-3{fill:#112d5c;}.cls-4{fill:url(#linear-gradient-2);}.cls-5{fill:url(#linear-gradient-3);}.cls-6{fill:url(#linear-gradient-4);}.cls-7{fill:url(#linear-gradient-5);}.cls-8{fill:url(#linear-gradient-6);}.cls-9{fill:url(#linear-gradient-7);}.cls-10{fill:url(#linear-gradient-8);}.cls-11{fill:url(#linear-gradient-9);}.cls-12{fill:url(#linear-gradient-10);}.cls-13{fill:url(#linear-gradient-11);}.cls-14{fill:url(#linear-gradient-12);}.cls-15{fill:url(#linear-gradient-13);}</style><linearGradient id="linear-gradient" x1="11.77" y1="63.85" x2="138.23" y2="63.85" gradientUnits="userSpaceOnUse"><stop offset="0" stop-color="#081e46"/><stop offset="1" stop-color="#1d3f78"/></linearGradient><linearGradient id="linear-gradient-2" x1="57.93" y1="65.2" x2="58.67" y2="65.2" xlink:href="#linear-gradient"/><linearGradient id="linear-gradient-3" x1="58.67" y1="83.18" x2="89.6" y2="83.18" gradientUnits="userSpaceOnUse"><stop offset="0" stop-color="#1d3f78"/><stop offset="1" stop-color="#081e46"/></linearGradient><linearGradient id="linear-gradient-4" x1="51.73" y1="89.36" x2="76.99" y2="89.36" xlink:href="#linear-gradient-3"/><linearGradient id="linear-gradient-5" x1="68.93" y1="50.42" x2="106.99" y2="50.42" gradientUnits="userSpaceOnUse"><stop offset="0" stop-color="#182052"/><stop offset="0.56" stop-color="#1a3065"/><stop offset="1" stop-color="#1c3f76"/></linearGradient><linearGradient id="linear-gradient-6" x1="27.01" y1="57.96" x2="69.3" y2="57.96" gradientUnits="userSpaceOnUse"><stop offset="0" stop-color="#1c3f76"/><stop offset="0.44" stop-color="#1a3065"/><stop offset="1" stop-color="#182052"/></linearGradient><linearGradient id="linear-gradient-7" x1="28.11" y1="60.97" x2="68.95" y2="60.97" xlink:href="#linear-gradient-6"/><linearGradient id="linear-gradient-8" x1="70.71" y1="52.74" x2="106.9" y2="52.74" xlink:href="#linear-gradient-5"/><linearGradient id="linear-gradient-9" x1="71.91" y1="53.98" x2="104.61" y2="53.98" xlink:href="#linear-gradient-5"/><linearGradient id="linear-gradient-10" x1="64.09" y1="59.28" x2="119.5" y2="59.28" gradientUnits="userSpaceOnUse"><stop offset="0" stop-color="#82632e"/><stop offset="1" stop-color="#c8ae7c"/></linearGradient><linearGradient id="linear-gradient-11" x1="15.2" y1="54.89" x2="56.53" y2="67.67" gradientUnits="userSpaceOnUse"><stop offset="0" stop-color="#c8ae7c"/><stop offset="1" stop-color="#82632e"/></linearGradient><linearGradient id="linear-gradient-12" x1="64.84" y1="47.98" x2="64.84" y2="37.79" gradientUnits="userSpaceOnUse"><stop offset="0" stop-color="#82632e"/><stop offset="0.49" stop-color="#d0bb77"/><stop offset="1" stop-color="#82632e"/></linearGradient><linearGradient id="linear-gradient-13" x1="15.67" y1="63.85" x2="134.33" y2="63.85" xlink:href="#linear-gradient-12"/></defs><circle class="cls-1" cx="75" cy="63.85" r="58.75" transform="translate(-14.91 23.62) rotate(-16.3)"/><path class="cls-2" d="M14.05,63.85a61,61,0,1,1,61,61A61,61,0,0,1,14.05,63.85Zm-2.28,0A63.23,63.23,0,1,0,75,.63,63.3,63.3,0,0,0,11.77,63.85Z"/><path class="cls-3" d="M81.57,147.93a3.78,3.78,0,0,1-.83-1.41l-4.81-12.27H75l-2.49.85v.51a2.54,2.54,0,0,1,.91.23,1.69,1.69,0,0,1,.59.66l-3.59,9.21c-.66,1.69-1.52,2.61-2.6,2.77v.57H72.6v-.57a1.63,1.63,0,0,1-1.23-.56,1.87,1.87,0,0,1-.44-1.23,3.75,3.75,0,0,1,.27-1.4l.69-1.76H76.8l1.16,3a2.9,2.9,0,0,1,.31,1.09.63.63,0,0,1-.41.64,4.24,4.24,0,0,1-1.2.25v.57h6.18v-.57A2.84,2.84,0,0,1,81.57,147.93Zm-9.44-5.07,2.2-5.6,2.21,5.6Z"/><path class="cls-3" d="M66.14,138.87a7,7,0,0,0-1.56-2.37,7.15,7.15,0,0,0-2.43-1.56,8.48,8.48,0,0,0-3.08-.55H50.49V135a4.15,4.15,0,0,1,1.61.35,1.07,1.07,0,0,1,.5,1V146.8a2.37,2.37,0,0,1-.18,1,1,1,0,0,1-.62.48,5.43,5.43,0,0,1-1.31.16v.57h8.24a9.36,9.36,0,0,0,3.23-.54A7.59,7.59,0,0,0,64.5,147a6.67,6.67,0,0,0,1.62-2.31,7.17,7.17,0,0,0,.57-2.87A7.78,7.78,0,0,0,66.14,138.87Zm-8.69,9.61a4.19,4.19,0,0,1-1.51-.2,1,1,0,0,1-.6-.61,5.24,5.24,0,0,1-.12-1.32V138a15.74,15.74,0,0,1,.08-1.9,1.14,1.14,0,0,1,.48-.82,2.42,2.42,0,0,1,1.37-.29,8.56,8.56,0,0,1,2.47.32,5.15,5.15,0,0,1,1.92,1,6.94,6.94,0,0,1,2.17,5.56,9.25,9.25,0,0,1-.25,2.26,5.37,5.37,0,0,1-.78,1.81,6,6,0,0,1-1.5,1.48,5.13,5.13,0,0,1-1.7.82A8.34,8.34,0,0,1,57.45,148.48Z"/><path class="cls-3" d="M94.25,134.39V135a3,3,0,0,1,1,.19,2.11,2.11,0,0,1,.84.48,2,2,0,0,1,.57,1,5,5,0,0,1,.17,1.43l.15,7.3-9.36-10.92H83.36V135h.12a2.26,2.26,0,0,1,1.16.34,5.2,5.2,0,0,1,1.12.95l0,0,.14,8.5a9.61,9.61,0,0,1-.08,1.87,2.14,2.14,0,0,1-.65,1.24,2.52,2.52,0,0,1-1.6.58v.57h5.51v-.57a4.15,4.15,0,0,1-1.3-.3,1.81,1.81,0,0,1-.78-.62,2.56,2.56,0,0,1-.37-.93,7.84,7.84,0,0,1-.12-1.32L86.39,137,97,149.38h.64l-.19-11.92a2.79,2.79,0,0,1,.3-1.34,2,2,0,0,1,.82-.84A2.66,2.66,0,0,1,99.8,135v-.57Z"/><path class="cls-3" d="M110.76,134.39V135h.1a1.26,1.26,0,0,1,1,.4,1.32,1.32,0,0,1,.37.92,3.26,3.26,0,0,1-.27,1.23,10.89,10.89,0,0,1-.81,1.59l-2,3.38-3-5a4.42,4.42,0,0,1-.74-1.66.64.64,0,0,1,.51-.7,6.87,6.87,0,0,1,1.45-.16v-.57h-6.85V135a1.64,1.64,0,0,1,1.18.29,4.69,4.69,0,0,1,.73,1l4.43,7.43v3a3.51,3.51,0,0,1-.11,1,1.09,1.09,0,0,1-.55.6,3.12,3.12,0,0,1-1.35.23h-.19v.57h7v-.57a4.74,4.74,0,0,1-1.73-.33c-.32-.17-.49-.58-.49-1.25v-3.74l3.07-5.26a13.87,13.87,0,0,1,1-1.55,4.81,4.81,0,0,1,1-1,2.21,2.21,0,0,1,.93-.4v-.57Z"/><path class="cls-3" d="M129.66,147.93a3.91,3.91,0,0,1-.84-1.41L124,134.25h-1l-2.5.85v.51a2.55,2.55,0,0,1,.92.23,1.77,1.77,0,0,1,.59.66l-3.59,9.21c-.66,1.69-1.53,2.61-2.6,2.77v.57h4.81v-.57a1.6,1.6,0,0,1-1.23-.56,1.82,1.82,0,0,1-.44-1.23,3.75,3.75,0,0,1,.27-1.4l.68-1.76h4.92l1.16,3a4.42,4.42,0,0,1,.21.56l0,.59-.2.3-.33.28-.08.09a5.66,5.66,0,0,1-.94.16v.57h6.17v-.57A2.79,2.79,0,0,1,129.66,147.93Zm-9.44-5.07,2.19-5.6,2.22,5.6Z"/><path class="cls-3" d="M29.42,134.39V135a1.57,1.57,0,0,1,1.21.47,1.81,1.81,0,0,1,.43,1.3,6.43,6.43,0,0,1-.58,2.32l-2.72,6.83-3.78-9a2.26,2.26,0,0,1-.15-.58c0-.25-.07-.37-.07-.35a.79.79,0,0,1,.37-.69A2,2,0,0,1,25.2,135h.18v-.57H19.12V135a2.15,2.15,0,0,1,1.23.32,1.4,1.4,0,0,1,.25.33l1.6,3.68,4.22,10H27l4.3-10.81a10.49,10.49,0,0,1,1.4-2.64,2.15,2.15,0,0,1,1.52-.92v-.57Z"/><path class="cls-3" d="M48.3,145.29a14.63,14.63,0,0,1-1.76,1.81,5.78,5.78,0,0,1-1.72,1,5.51,5.51,0,0,1-2,.35c-.63,0-1.13,0-1.49,0a1.81,1.81,0,0,1-.84-.26,1.07,1.07,0,0,1-.4-.62,5.15,5.15,0,0,1-.1-1.18V141.8h2.43a2.44,2.44,0,0,1,1.79.58,2.9,2.9,0,0,1,.71,1.84h.64v-5.51h-.72c0,1.67-.94,2.51-2.77,2.51H39.94v-4.53a2.58,2.58,0,0,1,.15-1,1.14,1.14,0,0,1,.63-.56,3.75,3.75,0,0,1,1.43-.21,6.89,6.89,0,0,1,2.27.38,7.71,7.71,0,0,1,1.94,1,6.94,6.94,0,0,1,1.47,1.38h.75l-1.26-3.32H35V135a8.24,8.24,0,0,1,1.48.18.94.94,0,0,1,.63.45,2.17,2.17,0,0,1,.19,1.06v10.27a1.84,1.84,0,0,1-.2.93,1.15,1.15,0,0,1-.69.47,5.81,5.81,0,0,1-1.41.16v.57H47.83l1.3-3.76Z"/><path class="cls-4" d="M57.93,65l.74.42Z"/><path class="cls-5" d="M89.42,98.66a3.2,3.2,0,0,1-1.86,2.09,3.14,3.14,0,0,1-1.09.2,4.12,4.12,0,0,1-3.64-2.78,4.76,4.76,0,0,1-.27-.91.69.69,0,0,1,0-.13l0-.08-.08-.79a25,25,0,0,0-1.57-6.15c-.27-.7-.57-1.41-.91-2.11a39.42,39.42,0,0,0-7.58-10.78h0a10.16,10.16,0,0,0-1.62-2.76,30.54,30.54,0,0,0-3.25-3,78.74,78.74,0,0,0-8.84-6.06,91.4,91.4,0,0,1,10,6.6A91,91,0,0,1,81.62,84.07c.63.71,1.11,1.34,1.58,2a80.64,80.64,0,0,1,5.33,8.14L89,95a1.64,1.64,0,0,1,.22.56l.06.12A4.66,4.66,0,0,1,89.42,98.66Z"/><path class="cls-6" d="M77,64.66c-4.7,5.15-6.66,8.13-10.43,14.08a17.12,17.12,0,0,0-2.47,7.34c-.54,1.22-1,2.46-1.49,3.72-.39.94-.76,1.87-1.09,2.79a52.66,52.66,0,0,0-1.7,5.56,44.67,44.67,0,0,0-1.38,11.51.54.54,0,0,1,0,.18,3.84,3.84,0,0,1,0,1.07A3.36,3.36,0,0,1,54.55,114a3.44,3.44,0,0,1-2.82-3.56,2.77,2.77,0,0,1,0-.39,1,1,0,0,1,0-.19,3.78,3.78,0,0,1,.18-.72l.06-.23a90.65,90.65,0,0,1,3.82-12.07,79.55,79.55,0,0,1,3.51-7.52c.32-.62,1.95-3.49,2.32-4.09C62.88,83.34,64,81.59,65.08,80A114.4,114.4,0,0,1,77,64.66Z"/><path class="cls-7" d="M86.08,42.82c-11.49,9.42-17.15,18-17.15,18l1.48,7.87a210.62,210.62,0,0,1,18.83-21.9C98.75,37.5,107,34.35,107,34.35l-5.69-2.17S97.57,33.4,86.08,42.82Z"/><path class="cls-8" d="M27,50.76a150.52,150.52,0,0,1,22.26,6.69,109.39,109.39,0,0,1,20,11.29l-.81-7.86S63.27,57,50.88,52.66s-17.52-5.48-17.52-5.48Z"/><path class="cls-9" d="M28.11,53.79a129.21,129.21,0,0,1,17.52,4.92C55.81,62.29,68.91,69.43,69,69.45s-11.18-7.9-23.29-12.16S30,52.5,30,52.5Z"/><path class="cls-10" d="M92,45.15c-9.74,8-21.26,24.09-21.26,24.09s13.7-15.49,20.57-21.55A112,112,0,0,1,106.9,36.58l-2.42-.33S101.72,37.12,92,45.15Z"/><path class="cls-11" d="M92.31,47.8c-8.3,7.33-20.38,21-20.4,21.06s10.38-11,18.51-18.15c9.17-8,14.19-11.14,14.19-11.14l-1-.47S100.32,40.71,92.31,47.8Z"/><path class="cls-12" d="M117.73,38.64a1.63,1.63,0,0,1-.49.36l-.9.48c-1.73.93-3.51,1.91-5.28,2.93l-.76.43q-.93.52-1.86,1.08l-2.58,1.55c-3.29,2-6.68,4.19-10.07,6.58A130.06,130.06,0,0,0,83.9,61.44c-.75.67-1.57,1.42-2.25,2.07q-2.43,2-4.67,4.23c-.25.24-.49.48-.73.73l-.42.44-.29.3c-.17.17-.33.35-.5.53l-.2.21c-.17.19-.35.38-.52.58l-.17.18-.52.59-.16.18c-.16.2-.33.39-.49.58l-.18.22-.46.54-.22.27-.39.49-.44.56h0l-.54.71h0c-.37.48-.72,1-1.07,1.46h0l-.51.73-1,1.51-.48.76c-.72,1.15-1.39,2.32-2,3.52l-.42.8c-.13.27-.26.54-.4.81s-.26.54-.38.82-.26.54-.38.82a17.12,17.12,0,0,1,2.47-7.34c3.77-5.95,5.73-8.93,10.43-14.08l0,0,.25-.27,1-1.1c.66-.67,2.67-2.72,3.41-3.46,3.47-3.45,7.34-7,11.87-10.69,3-2.48,6.12-4.9,9.13-7.25l.46-.35L108,37.79c1.75-1.33,3.33-2.55,4.82-3.73L113,34a4.79,4.79,0,0,1,.7-.58,4.92,4.92,0,0,1,2.74-.9A3.07,3.07,0,0,1,119,33.75C120,35.18,119.44,37.27,117.73,38.64Z"/><path class="cls-13" d="M72.38,77.22h0a43.31,43.31,0,0,0-16-10.16c-1.13-.51-2.07-.89-3.1-1.29a71.37,71.37,0,0,0-8.8-2.64,79.15,79.15,0,0,0-8.85-1.54l-2.25-.25-2.24-.17c-1.48-.1-3-.16-4.48-.18h0a5.55,5.55,0,0,1-.82.06h-.36a4.87,4.87,0,0,1-3.37-1.51,2.9,2.9,0,0,1-.78-2.14c.11-1.77,1.92-3.12,4.22-3.12h.41l.32,0,.13,0h.07L32,55.71l4.52,1.19c3.37.94,6.29,1.85,8.94,2.77,3.22,1.11,6.22,2.29,9,3.57,1,.48,2,1,3.06,1.54l.37.21a74.85,74.85,0,0,1,9.58,6.48,30.54,30.54,0,0,1,3.25,3A10.16,10.16,0,0,1,72.38,77.22Z"/><path class="cls-14" d="M59.74,42.88a5.1,5.1,0,1,0,5.1-5.09A5.1,5.1,0,0,0,59.74,42.88Z"/><path class="cls-15" d="M16.8,63.85A58.2,58.2,0,1,1,75,122.05,58.26,58.26,0,0,1,16.8,63.85Zm-1.13,0A59.33,59.33,0,1,0,75,4.52,59.4,59.4,0,0,0,15.67,63.85Z"/></svg>